<svg width="600" height="601" viewBox="0 0 600 601" fill="none" xmlns="http://www.w3.org/2000/svg">
<path d="M568.933 526.643H507.92H358.976H37.0308" stroke="#444050" stroke-width="2" stroke-miterlimit="11.9056" stroke-linecap="round" stroke-linejoin="round"/>
<path d="M61.9704 229.66V234.374" stroke="#444050" stroke-width="2" stroke-miterlimit="11.9056" stroke-linecap="round" stroke-linejoin="round"/>
<path d="M61.9704 239.69V244.404" stroke="#444050" stroke-width="2" stroke-miterlimit="11.9056" stroke-linecap="round" stroke-linejoin="round"/>
<path d="M69.342 237.032H64.6284" stroke="#444050" stroke-width="2" stroke-miterlimit="11.9056" stroke-linecap="round" stroke-linejoin="round"/>
<path d="M59.3136 237.032H54.6" stroke="#444050" stroke-width="2" stroke-miterlimit="11.9056" stroke-linecap="round" stroke-linejoin="round"/>
<path d="M557.779 159.847V164.56" stroke="#444050" stroke-width="2" stroke-miterlimit="11.9056" stroke-linecap="round" stroke-linejoin="round"/>
<path d="M557.779 169.875V174.589" stroke="#444050" stroke-width="2" stroke-miterlimit="11.9056" stroke-linecap="round" stroke-linejoin="round"/>
<path d="M565.151 167.217H560.438" stroke="#444050" stroke-width="2" stroke-miterlimit="11.9056" stroke-linecap="round" stroke-linejoin="round"/>
<path d="M555.122 167.217H550.409" stroke="#444050" stroke-width="2" stroke-miterlimit="11.9056" stroke-linecap="round" stroke-linejoin="round"/>
<path d="M136.381 422.021V426.735" stroke="#444050" stroke-width="2" stroke-miterlimit="11.9056" stroke-linecap="round" stroke-linejoin="round"/>
<path d="M136.381 432.05V436.762" stroke="#444050" stroke-width="2" stroke-miterlimit="11.9056" stroke-linecap="round" stroke-linejoin="round"/>
<path d="M143.753 429.392H139.039" stroke="#444050" stroke-width="2" stroke-miterlimit="11.9056" stroke-linecap="round" stroke-linejoin="round"/>
<path d="M133.724 429.392H129.011" stroke="#444050" stroke-width="2" stroke-miterlimit="11.9056" stroke-linecap="round" stroke-linejoin="round"/>
<path d="M86.0532 448.88C91.2144 451.921 96.5808 458.619 99.9636 464.605C101.168 466.736 102.448 470.522 103.036 472.753C104.507 478.331 104.561 484.962 103.92 485.328C102.558 486.103 96.4092 478.845 94.9272 476.718C90.8064 470.798 87.4788 465.558 86.1084 458.75C85.8456 457.441 84.3744 447.89 86.0532 448.88Z" fill="#444050"/>
<path d="M78.9324 485.39C84.0756 486.15 90.8316 489.709 95.7912 493.334C97.5576 494.624 100.039 497.186 101.376 498.75C104.718 502.657 107.399 507.831 107.056 508.319C106.327 509.352 98.7528 505.602 96.7764 504.401C91.2804 501.061 86.658 498.002 82.9044 493.101C82.1844 492.159 77.2596 485.143 78.9324 485.39Z" fill="#444050"/>
<path d="M118.514 470.79C120.07 474.565 119.808 480.712 118.706 485.694C118.314 487.467 117.089 490.306 116.264 491.919C114.204 495.954 110.716 500.134 110.128 500.132C108.88 500.126 108.958 493.346 109.178 491.473C109.792 486.267 110.532 481.773 113.306 477.003C113.839 476.089 118.009 469.561 118.514 470.79Z" fill="#444050"/>
<path d="M102.682 483.02C102.682 483.02 106.024 491.274 108.078 501.274C110.496 513.044 111.492 525.852 111.492 525.852" stroke="#444050" stroke-width="2" stroke-miterlimit="11.9056" stroke-linecap="round" stroke-linejoin="round"/>
<path d="M97.9032 46.0806C97.9032 46.0806 87.1848 66.093 75.4044 77.1318C63.624 88.1718 37.0308 100.33 37.0308 100.33C37.0308 100.33 45.444 157.696 58.8156 174.452C72.1872 191.209 97.9032 207.931 97.9032 207.931C97.9032 207.931 121.807 193.767 135.827 173.751C149.845 153.735 161.164 100.33 161.164 100.33C161.164 100.33 134.243 88.395 122.047 77.1318C109.852 65.8686 97.9032 46.0806 97.9032 46.0806Z" fill="#F05F23"/>
<path d="M97.4088 65.8687C97.4088 65.8687 88.7808 81.6079 79.2984 90.2899C69.816 98.9719 48.4104 108.535 48.4104 108.535C48.4104 108.535 56.4036 155.078 67.1676 168.255C77.9316 181.433 97.41 193.666 97.41 193.666C97.41 193.666 116.651 182.527 127.936 166.785C139.222 151.043 148.33 108.533 148.33 108.533C148.33 108.533 126.661 99.1471 116.844 90.2887C107.026 81.4315 97.4088 65.8687 97.4088 65.8687Z" stroke="white" stroke-width="2" stroke-miterlimit="11.9056" stroke-linecap="round" stroke-linejoin="round"/>
<path d="M74.0952 123.597C74.0952 121.285 75.9708 119.409 78.2832 119.409H118.457C120.77 119.409 122.646 121.285 122.646 123.597V148.515C122.646 150.828 120.772 152.702 118.457 152.702H78.2832C75.9696 152.702 74.0952 150.828 74.0952 148.515V123.597Z" fill="#444050"/>
<path d="M84.6336 127.387C84.6336 127.387 87.6288 106.484 98.5152 106.06C109.402 105.637 112.812 127.928 112.812 127.928" stroke="#444050" stroke-width="2" stroke-miterlimit="11.9056" stroke-linecap="round" stroke-linejoin="round"/>
<path d="M98.718 126.41C95.7648 126.41 93.3588 128.816 93.3588 131.768C93.3588 133.9 94.6452 135.702 96.4512 136.56L95.0592 145.733H102.377L100.934 136.611C102.796 135.774 104.077 133.941 104.077 131.766C104.077 128.817 101.671 126.41 98.718 126.41Z" fill="white"/>
<path d="M401.132 45.0178H528.102C528.102 45.0178 529.663 39.9682 528.298 35.7082C526.931 31.4482 524.87 30.913 524.87 30.913L403.686 30.4546C403.686 30.4546 402.157 31.333 400.832 35.7082C399.509 40.0834 401.132 45.0178 401.132 45.0178Z" fill="#FF787A"/>
<path d="M400.832 36.9644C400.832 33.7676 403.423 31.1768 406.62 31.1768H522.509C525.704 31.1768 528.296 33.7676 528.296 36.9644V82.4432C528.296 85.64 525.704 88.2308 522.509 88.2308H406.62C403.422 88.2308 400.832 85.64 400.832 82.4432V36.9644Z" stroke="#FF787A" stroke-width="2" stroke-miterlimit="11.9056" stroke-linecap="round" stroke-linejoin="round"/>
<path d="M410.417 38.467C410.417 37.3858 411.235 36.5098 412.244 36.5098C413.254 36.5098 414.071 37.3858 414.071 38.467C414.071 39.5482 413.254 40.4242 412.244 40.4242C411.236 40.4242 410.417 39.5482 410.417 38.467Z" fill="white"/>
<path d="M417.454 38.467C417.454 37.3858 418.272 36.5098 419.281 36.5098C420.29 36.5098 421.109 37.3858 421.109 38.467C421.109 39.5482 420.29 40.4242 419.281 40.4242C418.272 40.4242 417.454 39.5482 417.454 38.467Z" fill="white"/>
<path d="M424.49 38.467C424.49 37.3858 425.309 36.5098 426.318 36.5098C427.326 36.5098 428.146 37.3858 428.146 38.467C428.146 39.5482 427.327 40.4242 426.318 40.4242C425.309 40.4242 424.49 39.5482 424.49 38.467Z" fill="white"/>
<path d="M424.306 53.96H504.823" stroke="#FF787A" stroke-width="2" stroke-miterlimit="11.9056" stroke-linecap="round" stroke-linejoin="round"/>
<path d="M424.49 63.1738H505.008" stroke="#FF787A" stroke-width="2" stroke-miterlimit="11.9056" stroke-linecap="round" stroke-linejoin="round"/>
<path d="M424.49 72.3887H505.008" stroke="#FF787A" stroke-width="2" stroke-miterlimit="11.9056" stroke-linecap="round" stroke-linejoin="round"/>
<path d="M77.6316 304.561H219.758C219.758 304.561 221.507 299.286 219.977 294.836C218.449 290.387 213.51 290.102 213.51 290.102L83.8668 289.427C83.8668 289.427 78.7764 290.267 77.2944 294.836C75.8124 299.406 77.6316 304.561 77.6316 304.561Z" fill="#444050"/>
<path d="M77.2944 297.355C77.2944 293.349 80.5416 290.102 84.5472 290.102H212.726C216.732 290.102 219.978 293.349 219.978 297.355V379.496C219.978 383.502 216.732 386.748 212.726 386.748H84.5472C80.5416 386.748 77.2944 383.502 77.2944 379.496V297.355Z" stroke="#444050" stroke-width="2" stroke-miterlimit="11.9056" stroke-linecap="round" stroke-linejoin="round"/>
<path d="M88.0248 297.716C88.0248 296.587 88.9404 295.671 90.0696 295.671C91.1988 295.671 92.1144 296.587 92.1144 297.716C92.1144 298.847 91.1988 299.761 90.0696 299.761C88.9404 299.762 88.0248 298.847 88.0248 297.716Z" fill="white"/>
<path d="M95.9016 297.716C95.9016 296.587 96.8172 295.671 97.9464 295.671C99.0756 295.671 99.9912 296.587 99.9912 297.716C99.9912 298.847 99.0756 299.761 97.9464 299.761C96.8172 299.762 95.9016 298.847 95.9016 297.716Z" fill="white"/>
<path d="M103.778 297.716C103.778 296.587 104.694 295.671 105.823 295.671C106.952 295.671 107.868 296.587 107.868 297.716C107.868 298.847 106.952 299.761 105.823 299.761C104.694 299.762 103.778 298.847 103.778 297.716Z" fill="white"/>
<path d="M91.1088 333.119H181.24" stroke="#FF787A" stroke-width="2" stroke-miterlimit="11.9056" stroke-linecap="round" stroke-linejoin="round"/>
<path d="M91.3164 342.29H181.447" stroke="#FF787A" stroke-width="2" stroke-miterlimit="11.9056" stroke-linecap="round" stroke-linejoin="round"/>
<path d="M119.91 360.635H210.041" stroke="#FF787A" stroke-width="2" stroke-miterlimit="11.9056" stroke-linecap="round" stroke-linejoin="round"/>
<path d="M120.119 369.808H210.25" stroke="#FF787A" stroke-width="2" stroke-miterlimit="11.9056" stroke-linecap="round" stroke-linejoin="round"/>
<path d="M91.3164 351.463H181.447" stroke="#FF787A" stroke-width="2" stroke-miterlimit="11.9056" stroke-linecap="round" stroke-linejoin="round"/>
<path d="M91.3164 317.957H130.904V323.379H91.3164V317.957Z" fill="#F05F23"/>
<path d="M181.835 63.5433C181.835 56.4909 187.553 50.7729 194.605 50.7729H404.04C411.094 50.7729 416.809 56.4897 416.809 63.5433V473.595C416.809 480.649 411.092 486.366 404.04 486.366H194.606C187.553 486.366 181.836 480.648 181.836 473.595L181.835 63.5433Z" fill="white"/>
<path d="M275.407 67.7539C275.407 66.8467 276.409 66.1123 277.645 66.1123H321.001C322.237 66.1123 323.239 66.8479 323.239 67.7539V72.2323C323.239 73.1395 322.238 73.8739 321.001 73.8739H277.645C276.41 73.8739 275.407 73.1383 275.407 72.2323V67.7539Z" stroke="#444050" stroke-width="2" stroke-miterlimit="11.9056" stroke-linecap="round" stroke-linejoin="round"/>
<path d="M181.835 63.5433C181.835 56.4909 187.553 50.7729 194.605 50.7729H404.04C411.094 50.7729 416.809 56.4897 416.809 63.5433V473.595C416.809 480.649 411.092 486.366 404.04 486.366H194.606C187.553 486.366 181.836 480.648 181.836 473.595L181.835 63.5433Z" stroke="#444050" stroke-width="2" stroke-miterlimit="11.9056" stroke-linecap="round" stroke-linejoin="round"/>
<path d="M394.01 88.231H204.635V463.566H394.01V88.231Z" stroke="#F05F23" stroke-width="2" stroke-miterlimit="11.9056" stroke-linecap="round" stroke-linejoin="round"/>
<path d="M220.604 69.9935C220.604 67.4579 222.66 65.4023 225.196 65.4023C227.731 65.4023 229.787 67.4579 229.787 69.9935C229.787 72.5291 227.731 74.5847 225.196 74.5847C222.661 74.5847 220.604 72.5291 220.604 69.9935Z" stroke="#444050" stroke-width="2" stroke-miterlimit="11.9056" stroke-linecap="round" stroke-linejoin="round"/>
<path d="M223.198 290.589C223.198 288.985 224.498 287.684 226.103 287.684H372.752C374.357 287.684 375.658 288.986 375.658 290.589V316.58C375.658 318.186 374.357 319.485 372.752 319.485H226.103C224.498 319.485 223.198 318.186 223.198 316.58V290.589Z" stroke="#F05F23" stroke-width="2" stroke-miterlimit="11.9056" stroke-linecap="round" stroke-linejoin="round"/>
<path d="M222.99 363.273C222.99 361.669 224.29 360.368 225.895 360.368H372.545C374.149 360.368 375.449 361.668 375.449 363.273V389.265C375.449 390.87 374.149 392.171 372.545 392.171H225.894C224.29 392.171 222.989 390.871 222.989 389.265L222.99 363.273Z" stroke="#F05F23" stroke-width="2" stroke-miterlimit="11.9056" stroke-linecap="round" stroke-linejoin="round"/>
<path d="M226.482 274.066H270.401V282.249H226.482V274.066Z" fill="#444050"/>
<path d="M226.482 347.285H279.676V355.467H226.482V347.285Z" fill="#444050"/>
<path d="M229.054 299.621H292.232V307.549H229.054V299.621Z" fill="#F05F23"/>
<path d="M248.442 195.393C248.442 191.812 251.345 188.91 254.926 188.91H346.898C350.48 188.91 353.383 191.812 353.383 195.393V220.962C353.383 224.544 350.48 227.446 346.898 227.446H254.926C251.345 227.446 248.442 224.544 248.442 220.962V195.393Z" fill="#444050"/>
<path d="M233 376.269C233 374.481 234.45 373.032 236.237 373.032C238.025 373.032 239.474 374.481 239.474 376.269C239.474 378.056 238.025 379.506 236.237 379.506C234.449 379.506 233 378.057 233 376.269Z" fill="#F05F23"/>
<path d="M245.204 376.269C245.204 374.481 246.654 373.032 248.442 373.032C250.229 373.032 251.678 374.481 251.678 376.269C251.678 378.056 250.229 379.506 248.442 379.506C246.653 379.506 245.204 378.057 245.204 376.269Z" fill="#F05F23"/>
<path d="M257.406 376.269C257.406 374.481 258.856 373.032 260.642 373.032C262.43 373.032 263.88 374.481 263.88 376.269C263.88 378.056 262.43 379.506 260.642 379.506C258.854 379.506 257.406 378.057 257.406 376.269Z" fill="#F05F23"/>
<path d="M270.401 376.269C270.401 374.481 271.85 373.032 273.638 373.032C275.425 373.032 276.875 374.481 276.875 376.269C276.875 378.056 275.425 379.506 273.638 379.506C271.849 379.506 270.401 378.057 270.401 376.269Z" fill="#F05F23"/>
<path d="M283.188 376.269C283.188 374.481 284.636 373.032 286.424 373.032C288.211 373.032 289.661 374.481 289.661 376.269C289.661 378.056 288.211 379.506 286.424 379.506C284.635 379.506 283.188 378.057 283.188 376.269Z" fill="#F05F23"/>
<path d="M270.787 141.074C273.36 125.451 288.112 114.873 303.734 117.447C319.357 120.021 329.935 134.773 327.361 150.396C324.787 166.019 310.037 176.595 294.414 174.023C278.791 171.449 268.213 156.697 270.787 141.074Z" stroke="#FF787A" stroke-width="2" stroke-miterlimit="11.9056" stroke-linecap="round" stroke-linejoin="round"/>
<path d="M292.232 136.109C292.264 132.308 295.44 129.252 299.326 129.283C303.212 129.314 306.338 132.421 306.307 136.223C306.277 140.024 303.101 143.081 299.214 143.048C295.328 143.017 292.201 139.91 292.232 136.109Z" fill="#444050"/>
<path d="M299.174 145.736C291.668 145.675 285.538 152.025 284.717 160.199L313.433 160.43C312.744 152.246 306.682 145.796 299.174 145.736Z" fill="#444050"/>
<path d="M273.455 211.58C273.455 210.943 273.23 210.451 272.783 210.106C272.334 209.761 271.526 209.412 270.358 209.06C269.189 208.709 268.259 208.316 267.569 207.886C266.248 207.056 265.586 205.973 265.586 204.638C265.586 203.47 266.063 202.507 267.016 201.75C267.968 200.993 269.206 200.615 270.726 200.615C271.735 200.615 272.635 200.801 273.425 201.173C274.216 201.545 274.836 202.074 275.287 202.762C275.738 203.448 275.964 204.21 275.964 205.046H273.454C273.454 204.289 273.216 203.698 272.742 203.269C272.267 202.842 271.588 202.627 270.704 202.627C269.881 202.627 269.242 202.802 268.787 203.156C268.332 203.508 268.105 203.999 268.105 204.631C268.105 205.162 268.351 205.604 268.842 205.96C269.334 206.315 270.144 206.66 271.272 206.995C272.401 207.33 273.307 207.713 273.991 208.141C274.675 208.568 275.177 209.062 275.496 209.616C275.815 210.17 275.974 210.82 275.974 211.564C275.974 212.772 275.51 213.733 274.584 214.446C273.659 215.16 272.401 215.518 270.814 215.518C269.765 215.518 268.8 215.323 267.92 214.936C267.041 214.547 266.356 214.01 265.868 213.326C265.38 212.642 265.136 211.846 265.136 210.936H267.656C267.656 211.76 267.929 212.398 268.474 212.849C269.018 213.3 269.798 213.526 270.815 213.526C271.691 213.526 272.351 213.348 272.791 212.993C273.234 212.635 273.455 212.165 273.455 211.58Z" fill="#F05F23"/>
<path d="M280.847 215.316H278.336V200.812H280.847V215.316Z" fill="#F05F23"/>
<path d="M295.061 213.434C294.535 214.117 293.809 214.636 292.879 214.988C291.95 215.34 290.894 215.515 289.712 215.515C288.496 215.515 287.42 215.239 286.484 214.688C285.548 214.138 284.826 213.349 284.318 212.323C283.81 211.297 283.547 210.101 283.526 208.733V207.596C283.526 205.405 284.051 203.694 285.1 202.463C286.148 201.232 287.614 200.615 289.492 200.615C291.107 200.615 292.387 201.014 293.338 201.815C294.287 202.615 294.858 203.766 295.051 205.267H292.58C292.302 203.52 291.288 202.646 289.542 202.646C288.414 202.646 287.555 203.053 286.967 203.866C286.379 204.679 286.075 205.872 286.055 207.443V208.558C286.055 210.124 286.385 211.339 287.046 212.206C287.707 213.072 288.624 213.504 289.8 213.504C291.088 213.504 292.004 213.212 292.549 212.628V209.789H289.561V207.876H295.06V213.434H295.061Z" fill="#F05F23"/>
<path d="M309.335 215.316H306.814L300.348 205.027V215.316H297.828V200.812H300.348L306.833 211.141V200.812H309.334L309.335 215.316Z" fill="#F05F23"/>
<path d="M320.053 215.316H317.543V200.812H320.053V215.316Z" fill="#F05F23"/>
<path d="M334.656 215.316H332.135L325.669 205.027V215.316H323.149V200.812H325.669L332.154 211.141V200.812H334.655V215.316H334.656Z" fill="#F05F23"/>
<path d="M522.084 539.843L521.837 567.265L505.994 567.065L505.132 555.379C505.132 555.379 489.962 566.804 486.848 566.906C476.651 567.239 443.875 567.992 442.135 566.259C436.816 560.964 446.206 557.486 459.106 552.195C474.667 545.814 487.334 538.627 487.334 538.627" fill="white"/>
<path d="M522.084 539.843L521.837 567.265L505.994 567.065L505.132 555.379C505.132 555.379 489.962 566.804 486.848 566.906C476.651 567.239 443.875 567.992 442.135 566.259C436.816 560.964 446.206 557.486 459.106 552.195C474.667 545.814 487.334 538.627 487.334 538.627" stroke="#444050" stroke-width="2" stroke-miterlimit="11.9056" stroke-linecap="round" stroke-linejoin="round"/>
<path d="M482.815 550.611L470.465 541.91" stroke="#F05F23" stroke-width="2" stroke-miterlimit="11.9056" stroke-linecap="round" stroke-linejoin="round"/>
<path d="M477.264 552.993L464.914 544.292" stroke="#F05F23" stroke-width="2" stroke-miterlimit="11.9056" stroke-linecap="round" stroke-linejoin="round"/>
<path d="M444.985 539.843L444.738 567.265L428.896 567.065L428.033 555.379C428.033 555.379 412.864 566.804 409.75 566.906C399.552 567.239 366.776 567.992 365.036 566.259C359.717 560.964 369.107 557.486 382.007 552.195C397.568 545.814 410.236 538.627 410.236 538.627" fill="white"/>
<path d="M444.985 539.843L444.738 567.265L428.896 567.065L428.033 555.379C428.033 555.379 412.864 566.804 409.75 566.906C399.552 567.239 366.776 567.992 365.036 566.259C359.717 560.964 369.107 557.486 382.007 552.195C397.568 545.814 410.236 538.627 410.236 538.627" stroke="#444050" stroke-width="2" stroke-miterlimit="11.9056" stroke-linecap="round" stroke-linejoin="round"/>
<path d="M405.716 550.611L393.366 541.91" stroke="#F05F23" stroke-width="2" stroke-miterlimit="11.9056" stroke-linecap="round" stroke-linejoin="round"/>
<path d="M400.165 552.993L387.815 544.292" stroke="#F05F23" stroke-width="2" stroke-miterlimit="11.9056" stroke-linecap="round" stroke-linejoin="round"/>
<path d="M543.695 363.943C543.695 363.943 546.632 330.511 547.052 322.398C547.471 314.284 548.032 293.582 548.032 293.582H519.744C519.744 293.582 528.323 361.96 528.323 365.637C528.323 369.314 520.466 382.881 522.196 386.656C523.925 390.432 526.172 392.599 526.172 392.599L526.495 392.497C526.739 393.566 527.123 394.376 527.681 394.708C530.118 396.162 531.569 393.326 531.569 393.326L531.677 392.558C531.972 393.811 532.446 394.803 533.113 395.324C535.806 397.422 537.568 394.924 537.568 394.924L537.61 394.332C538.505 395.47 539.677 396.272 541.054 396.601C543.222 397.119 545.251 395.895 546.936 392.793C546.936 392.793 548.239 389.384 549.47 385.526C551.395 377.144 543.695 363.943 543.695 363.943Z" fill="white"/>
<path d="M543.102 382.899L541.771 387.632C541.771 387.632 546.979 389.081 547.716 395.141C548.338 400.247 548.148 409.454 548.069 412.699L520.068 412.543L518.386 452.784L548.303 455.169L560.661 450.282L555.185 412.739H552.879C552.971 409.365 553.203 399.383 552.37 392.795C551.386 385.019 543.102 382.899 543.102 382.899Z" fill="#F05F23"/>
<path d="M549.778 415.713L546.935 452.406" stroke="#444050" stroke-width="2" stroke-miterlimit="11.9056" stroke-linecap="round" stroke-linejoin="round"/>
<path d="M546.935 392.791C545.249 395.893 543.221 397.117 541.052 396.598C537.634 395.781 535.382 392.156 535.874 387.264C536.366 382.371 538.729 378.574 541.182 379.616C543.635 380.656 541.554 387.716 541.554 387.716" stroke="#444050" stroke-width="2" stroke-miterlimit="11.9056" stroke-linecap="round" stroke-linejoin="round"/>
<path d="M526.172 392.599C526.172 392.599 523.925 390.432 522.196 386.656C520.468 382.881 528.323 369.314 528.323 365.637C528.323 361.96 519.744 293.582 519.744 293.582H548.03C548.03 293.582 547.471 314.284 547.051 322.398C546.631 330.511 543.694 363.943 543.694 363.943C543.694 363.943 551.394 377.144 549.468 385.524C549.372 385.826 549.275 386.126 549.178 386.421" stroke="#444050" stroke-width="2" stroke-miterlimit="11.9056" stroke-linecap="round" stroke-linejoin="round"/>
<path d="M538.588 380.348C538.588 380.348 536.544 375.937 533.693 379.702C530.843 383.467 530.42 393.225 533.112 395.323C535.805 397.42 537.566 394.923 537.566 394.923" stroke="#444050" stroke-width="2" stroke-miterlimit="11.9056" stroke-linecap="round" stroke-linejoin="round"/>
<path d="M533.545 379.19C533.545 379.19 530.48 376.587 528.24 379.783C525.998 382.98 525.241 393.257 527.68 394.709C530.117 396.162 531.568 393.326 531.568 393.326" stroke="#444050" stroke-width="2" stroke-miterlimit="11.9056" stroke-linecap="round" stroke-linejoin="round"/>
<path d="M492.407 181.839C524.647 181.839 561.298 204.551 558.247 301.297C562.332 305.382 562.14 314.778 558.713 317.229C555.286 319.681 527.557 319.221 527.557 319.221L519.744 270.966L492.407 181.839Z" fill="#F05F23"/>
<path opacity="0.2" d="M552.797 272.08C554.618 272.08 556.318 271.575 557.779 270.709C557.345 264.379 556.696 258.472 555.852 252.963C554.89 252.648 553.865 252.471 552.797 252.471C547.382 252.471 542.993 256.861 542.993 262.275C542.993 267.691 547.382 272.08 552.797 272.08Z" fill="white"/>
<path opacity="0.2" d="M529.206 309.365C529.206 305.87 527.372 302.81 524.62 301.074L526.97 315.596C528.367 313.903 529.206 311.732 529.206 309.365Z" fill="white"/>
<path opacity="0.2" d="M559.363 316.632C562.144 313.52 562.055 305.105 558.247 301.297C558.248 301.269 558.248 301.244 558.25 301.217C556.691 300.171 554.816 299.561 552.798 299.561C547.384 299.561 542.994 303.95 542.994 309.365C542.994 313.824 545.974 317.581 550.048 318.77C553.895 318.494 557.072 318.066 558.394 317.409C558.733 317.172 559.055 316.91 559.363 316.632Z" fill="white"/>
<path opacity="0.2" d="M548.456 223.969C546.883 219.899 545.156 216.185 543.295 212.809C543.104 213.572 542.993 214.365 542.993 215.187C542.993 219.042 545.222 222.367 548.456 223.969Z" fill="white"/>
<path opacity="0.2" d="M538.5 295.585C543.846 294.72 547.477 289.685 546.612 284.34C545.747 278.995 540.712 275.363 535.367 276.228C530.022 277.093 526.39 282.128 527.255 287.473C528.12 292.819 533.155 296.451 538.5 295.585Z" fill="white"/>
<path opacity="0.2" d="M535.543 201.428C532.915 198.311 530.135 195.634 527.243 193.354C527.945 197.552 531.307 200.84 535.543 201.428Z" fill="white"/>
<path opacity="0.2" d="M511.585 244.367C512.671 242.789 513.31 240.878 513.31 238.818C513.31 234.668 510.727 231.128 507.085 229.698L511.585 244.367Z" fill="white"/>
<path opacity="0.2" d="M536.902 248.622C542.316 248.622 546.706 244.232 546.706 238.818C546.706 233.403 542.316 229.014 536.902 229.014C531.487 229.014 527.098 233.403 527.098 238.818C527.098 244.232 531.487 248.622 536.902 248.622Z" fill="white"/>
<path opacity="0.2" d="M497.906 199.771C499.494 200.878 501.422 201.534 503.506 201.534C508.92 201.534 513.31 197.144 513.31 191.73C513.31 188.775 511.998 186.134 509.93 184.336C506.845 183.403 503.729 182.758 500.618 182.359C497.74 183.244 495.434 185.424 494.36 188.215L497.906 199.771Z" fill="white"/>
<path opacity="0.2" d="M519.402 224.991C524.817 224.991 529.206 220.602 529.206 215.187C529.206 209.773 524.817 205.383 519.402 205.383C513.987 205.383 509.598 209.773 509.598 215.187C509.598 220.602 513.987 224.991 519.402 224.991Z" fill="white"/>
<path opacity="0.2" d="M529.206 262.277C529.206 256.862 524.816 252.473 519.402 252.473C517.607 252.473 515.929 252.963 514.482 253.806L519.745 270.966L519.922 272.055C525.092 271.783 529.206 267.516 529.206 262.277Z" fill="white"/>
<path d="M455.302 280.872C455.302 280.872 413.374 388.664 410.269 405.234C407.165 421.806 390.918 540.276 390.918 540.276H456.679L465.954 415.713L473.222 392.098L471.46 541.648H531.48L529.859 336.019C529.859 336.019 536.15 325.556 535.943 310.396C535.735 295.236 522.439 276.949 522.439 276.949L455.302 280.872Z" fill="#444050"/>
<path d="M509.879 306.94C509.879 306.94 508.421 320.635 497.573 326.095C486.727 331.555 475.922 329.389 475.922 329.389" stroke="#F05F23" stroke-width="2" stroke-miterlimit="11.9056" stroke-linecap="round" stroke-linejoin="round"/>
<path d="M492.119 328.568L465.954 415.714L456.679 540.277" stroke="#F05F23" stroke-width="2" stroke-miterlimit="11.9056" stroke-linecap="round" stroke-linejoin="round"/>
<path d="M471.458 290.333C471.458 290.333 432.677 387.851 430.88 397.307C429.083 406.765 411.92 529.204 411.92 529.204" stroke="#F05F23" stroke-width="2" stroke-miterlimit="11.9056" stroke-linecap="round" stroke-linejoin="round"/>
<path d="M362.153 209.335C356.789 205.807 348.204 200.363 341.279 200.368C336.908 200.371 324.835 197.103 323.005 203.613C321.805 207.88 334.589 208.712 337.468 209.469C339.232 209.933 341.124 209.738 342.422 209.955C345.858 210.53 347.276 210.911 347.276 210.911C347.276 210.911 341.1 209.069 336.354 209.811C329.33 210.909 328.598 216.67 338.29 217.624C341.726 217.963 342.996 218.351 342.996 218.351C342.996 218.351 339.667 217.569 334.243 217.234C328.818 216.897 329.894 224.297 336.551 225.25C342.062 226.039 344.167 227.324 344.167 227.324C344.167 227.324 348.281 230.021 352.654 231.745C357.026 233.468 361.657 234.219 361.657 234.219C361.657 234.219 398.237 269.048 412.742 275.44C427.248 281.831 451.052 253.832 451.052 253.832L428.856 229.715L414.862 242.301L373.978 215.625C373.978 215.625 369.763 205.527 367.726 203.674C353.455 190.687 351.061 190.978 349.668 192.394C348.985 193.09 348.797 198.909 352.096 202.947C355.512 207.125 362.424 209.513 362.153 209.335Z" fill="white"/>
<path d="M362.153 209.335C356.789 205.807 348.204 200.363 341.279 200.368C336.908 200.371 324.835 197.103 323.005 203.613C321.805 207.88 334.589 208.712 337.468 209.469C339.232 209.933 341.124 209.738 342.422 209.955C345.858 210.53 347.276 210.911 347.276 210.911C347.276 210.911 341.1 209.069 336.354 209.811C329.33 210.909 328.598 216.67 338.29 217.624C341.726 217.963 342.996 218.351 342.996 218.351C342.996 218.351 339.667 217.569 334.243 217.234C328.818 216.897 329.894 224.297 336.551 225.25C342.062 226.039 344.167 227.324 344.167 227.324C344.167 227.324 348.281 230.021 352.654 231.745C357.026 233.468 361.657 234.219 361.657 234.219C361.657 234.219 398.237 269.048 412.742 275.44C427.248 281.831 451.052 253.832 451.052 253.832L428.856 229.715L414.862 242.301L373.978 215.625C373.978 215.625 369.763 205.527 367.726 203.674C353.455 190.687 351.061 190.978 349.668 192.394C348.985 193.09 348.797 198.909 352.096 202.947C355.512 207.125 362.424 209.513 362.153 209.335Z" stroke="#444050" stroke-width="2" stroke-miterlimit="11.9056" stroke-linecap="round" stroke-linejoin="round"/>
<path d="M476.693 159.562C476.185 150.296 483.286 142.371 492.552 141.863C501.818 141.356 509.743 148.456 510.251 157.723C510.758 166.989 503.658 174.914 494.392 175.422C485.125 175.93 477.202 168.83 476.693 159.562Z" fill="white" stroke="#444050" stroke-width="2" stroke-miterlimit="11.9056" stroke-linecap="round" stroke-linejoin="round"/>
<path d="M490.572 160.461C490.788 159.438 491.786 158.781 492.798 158.996C493.812 159.21 494.458 160.214 494.24 161.238C494.023 162.261 493.026 162.918 492.014 162.703C491 162.489 490.355 161.485 490.572 160.461Z" fill="#F05F23"/>
<path d="M478.662 151.771C478.858 150.848 479.765 150.258 480.686 150.453C481.61 150.649 482.2 151.556 482.004 152.479C481.808 153.402 480.902 153.992 479.98 153.795C479.056 153.601 478.466 152.695 478.662 151.771Z" fill="#444050"/>
<path d="M487.945 154.972C488.141 154.048 489.047 153.459 489.97 153.655C490.894 153.85 491.483 154.757 491.287 155.679C491.092 156.603 490.184 157.192 489.263 156.997C488.339 156.802 487.75 155.896 487.945 154.972Z" fill="#444050"/>
<path d="M488.972 162.111C488.972 162.111 487.908 164.553 486.112 165.063C484.315 165.573 483.04 164.418 483.04 164.418" stroke="#444050" stroke-width="2" stroke-miterlimit="11.9056" stroke-linecap="round" stroke-linejoin="round"/>
<path d="M484.75 152.663L481.267 158.726L484.811 159.515" stroke="#444050" stroke-width="2" stroke-miterlimit="11.9056" stroke-linecap="round" stroke-linejoin="round"/>
<path d="M456.679 272.389L525.425 270.861V281.51L456.679 283.039V272.389Z" fill="#FF787A"/>
<path d="M515.604 129.473C510.007 129.473 505.529 133.363 504.164 138.53C502.087 137.01 499.608 135.507 496.537 134.754C488.806 132.853 478.007 134.634 475.344 141.17C472.681 147.708 481.802 150.391 486.198 149.568C490.594 148.745 494.227 145.901 494.227 145.901C494.227 145.901 494.066 150.876 497.27 157.964C500.476 165.051 506.548 170.724 506.548 170.724C506.548 170.724 514.154 166.374 514.799 158.403C514.94 156.653 514.661 154.953 514.284 153.344C514.74 153.396 515.136 153.601 515.604 153.601C522.269 153.601 527.668 148.202 527.668 141.537C527.668 134.873 522.269 129.473 515.604 129.473Z" fill="#444050"/>
<path d="M525.36 126.987C525.36 121.594 529.732 117.222 535.126 117.222C540.52 117.222 544.89 121.593 544.89 126.987C544.89 132.38 540.519 136.753 535.126 136.753C529.732 136.753 525.36 132.381 525.36 126.987Z" fill="#444050"/>
<path d="M547.652 238.93C547.652 207.382 522.078 181.807 490.529 181.807C458.981 181.807 433.405 207.381 433.405 238.93C433.405 252.77 438.329 265.459 446.518 275.344V296.054H535.805V273.742C543.228 264.104 547.652 252.037 547.652 238.93Z" fill="#F05F23"/>
<path opacity="0.2" d="M527.098 238.818C527.098 233.403 531.487 229.014 536.902 229.014C542.316 229.014 546.706 233.403 546.706 238.818C546.706 244.232 542.316 248.622 536.902 248.622C531.487 248.622 527.098 244.233 527.098 238.818ZM503.506 295.711C508.92 295.711 513.31 291.321 513.31 285.907C513.31 280.493 508.92 276.103 503.506 276.103C498.091 276.103 493.702 280.493 493.702 285.907C493.702 291.321 498.091 295.711 503.506 295.711ZM529.206 262.277C529.206 256.862 524.816 252.473 519.402 252.473C513.988 252.473 509.598 256.862 509.598 262.277C509.598 267.691 513.988 272.081 519.402 272.081C524.816 272.081 529.206 267.691 529.206 262.277ZM442.806 215.187C442.806 220.602 447.196 224.991 452.61 224.991C458.024 224.991 462.414 220.602 462.414 215.187C462.414 209.773 458.024 205.383 452.61 205.383C447.196 205.383 442.806 209.773 442.806 215.187ZM532.977 200.711C531.424 198.987 529.762 197.369 528.013 195.846C529.018 198.012 530.784 199.751 532.977 200.711ZM434.18 248.28C434.99 248.496 435.836 248.623 436.715 248.623C442.129 248.623 446.519 244.233 446.519 238.819C446.519 233.405 442.129 229.015 436.715 229.015C435.852 229.015 435.021 229.137 434.224 229.347C433.697 232.465 433.408 235.664 433.408 238.933C433.407 242.115 433.679 245.237 434.18 248.28ZM543.036 261.421C543.723 259.821 544.336 258.185 544.877 256.514C543.856 257.916 543.195 259.595 543.036 261.421ZM535.806 276.168C530.908 276.713 527.098 280.863 527.098 285.907C527.098 290.951 530.908 295.101 535.806 295.646V276.168ZM543.099 216.552C543.306 218.039 543.839 219.421 544.635 220.616C544.169 219.24 543.665 217.88 543.099 216.552ZM476.202 215.187C476.202 220.602 480.592 224.991 486.006 224.991C491.421 224.991 495.81 220.602 495.81 215.187C495.81 209.773 491.421 205.383 486.006 205.383C480.591 205.383 476.202 209.773 476.202 215.187ZM460.306 191.73C460.306 197.144 464.695 201.534 470.11 201.534C475.524 201.534 479.914 197.144 479.914 191.73C479.914 188.43 478.278 185.517 475.78 183.741C470.284 185.207 465.118 187.47 460.405 190.401C460.348 190.836 460.306 191.277 460.306 191.73ZM519.402 224.991C524.816 224.991 529.206 220.602 529.206 215.187C529.206 209.773 524.816 205.383 519.402 205.383C513.988 205.383 509.598 209.773 509.598 215.187C509.598 220.602 513.986 224.991 519.402 224.991ZM493.702 191.73C493.702 197.144 498.091 201.534 503.506 201.534C508.92 201.534 513.31 197.144 513.31 191.73C513.31 189.447 512.524 187.352 511.216 185.687C507.625 184.291 503.861 183.246 499.96 182.597C496.301 184.019 493.702 187.567 493.702 191.73ZM470.11 248.623C475.524 248.623 479.914 244.233 479.914 238.819C479.914 233.405 475.524 229.015 470.11 229.015C464.695 229.015 460.306 233.405 460.306 238.819C460.306 244.233 464.695 248.623 470.11 248.623ZM462.414 262.277C462.414 256.862 458.024 252.473 452.61 252.473C447.196 252.473 442.806 256.862 442.806 262.277C442.806 267.691 447.196 272.081 452.61 272.081C458.024 272.081 462.414 267.691 462.414 262.277ZM470.11 295.711C475.524 295.711 479.914 291.321 479.914 285.907C479.914 280.493 475.524 276.103 470.11 276.103C464.695 276.103 460.306 280.493 460.306 285.907C460.306 291.321 464.695 295.711 470.11 295.711ZM493.702 238.818C493.702 244.232 498.091 248.622 503.506 248.622C508.92 248.622 513.31 244.232 513.31 238.818C513.31 233.403 508.92 229.014 503.506 229.014C498.091 229.014 493.702 233.403 493.702 238.818ZM495.81 262.277C495.81 256.862 491.421 252.473 486.006 252.473C480.592 252.473 476.202 256.862 476.202 262.277C476.202 267.691 480.592 272.081 486.006 272.081C491.421 272.081 495.81 267.691 495.81 262.277Z" fill="white"/>
<path d="M455.892 264.122C455.892 264.122 430.081 276.571 417.649 278.051C405.217 279.532 388.919 266.572 384.834 261.118C380.749 255.664 393.804 228.417 398.519 226.334C403.234 224.251 409.14 234.057 409.14 234.057C409.14 234.057 447.744 181.807 490.53 181.807" fill="#F05F23"/>
<path opacity="0.2" d="M459.572 255.376L455.892 264.122C455.892 264.122 451.451 266.263 445.372 268.873C443.783 267.13 442.805 264.819 442.805 262.275C442.805 256.861 447.194 252.471 452.609 252.471C455.333 252.471 457.796 253.584 459.572 255.376ZM419.214 252.471C413.8 252.471 409.41 256.861 409.41 262.275C409.41 267.69 413.8 272.079 419.214 272.079C424.628 272.079 429.018 267.69 429.018 262.275C429.018 256.861 424.628 252.471 419.214 252.471ZM460.306 191.73C460.306 197.144 464.695 201.534 470.11 201.534C475.524 201.534 479.914 197.144 479.914 191.73C479.914 188.449 478.296 185.552 475.822 183.772C470.575 185.136 465.461 187.142 460.548 189.583C460.394 190.274 460.306 190.99 460.306 191.73ZM470.11 229.014C464.695 229.014 460.306 233.403 460.306 238.818C460.306 241.682 461.542 244.251 463.5 246.043L470.654 229.04C470.473 229.032 470.294 229.014 470.11 229.014ZM416.892 224.703C417.637 224.884 418.412 224.991 419.214 224.991C424.628 224.991 429.018 220.602 429.018 215.187C429.018 214.286 428.886 213.416 428.658 212.587C423.996 216.981 420.018 221.191 416.892 224.703ZM476.202 215.187C476.202 215.39 476.22 215.588 476.232 215.787L479.605 207.772C477.523 209.569 476.202 212.222 476.202 215.187ZM452.61 224.991C458.024 224.991 462.414 220.602 462.414 215.187C462.414 209.773 458.024 205.383 452.61 205.383C447.196 205.383 442.806 209.773 442.806 215.187C442.806 220.602 447.196 224.991 452.61 224.991ZM385.818 252.471C385.493 252.471 385.174 252.489 384.857 252.519C383.89 256.396 383.698 259.602 384.834 261.118C386.288 263.06 389.293 265.952 393.118 268.806C394.67 267.07 395.623 264.787 395.623 262.275C395.623 256.861 391.234 252.471 385.818 252.471ZM393.515 238.818C393.515 244.232 397.904 248.622 403.319 248.622C408.733 248.622 413.123 244.232 413.123 238.818C413.123 236.274 412.146 233.964 410.557 232.222C409.631 233.394 409.14 234.058 409.14 234.058C409.14 234.058 407.586 231.482 405.437 229.25C404.754 229.099 404.047 229.014 403.319 229.014C397.904 229.014 393.515 233.403 393.515 238.818ZM426.91 238.818C426.91 244.232 431.299 248.622 436.714 248.622C442.128 248.622 446.518 244.232 446.518 238.818C446.518 233.403 442.128 229.014 436.714 229.014C431.299 229.014 426.91 233.403 426.91 238.818Z" fill="white"/>
<path d="M535.806 243.391V296.054H446.519" stroke="#444050" stroke-width="2" stroke-miterlimit="11.9056" stroke-linecap="round" stroke-linejoin="round"/>
<path d="M455.892 264.122C455.892 264.122 430.081 276.571 417.649 278.051C405.217 279.532 388.919 266.572 384.834 261.118C380.749 255.664 393.804 228.417 398.519 226.334C403.234 224.251 409.14 234.057 409.14 234.057C409.14 234.057 447.744 181.807 490.53 181.807" stroke="#444050" stroke-width="2" stroke-miterlimit="11.9056" stroke-linecap="round" stroke-linejoin="round"/>
<path d="M409.14 234.057L397.498 263.101" stroke="#444050" stroke-width="2" stroke-miterlimit="11.9056" stroke-linecap="round" stroke-linejoin="round"/>
<path d="M397.498 238.931L389.736 259.016" stroke="#444050" stroke-width="2" stroke-miterlimit="11.9056" stroke-linecap="round" stroke-linejoin="round"/>
<path d="M552.323 302.114H526.852" stroke="#444050" stroke-width="2" stroke-miterlimit="11.9056" stroke-linecap="round" stroke-linejoin="round"/>
<path d="M545.992 310.489C545.378 310.285 526.588 310.489 526.588 310.489" stroke="#444050" stroke-width="2" stroke-miterlimit="11.9056" stroke-linecap="round" stroke-linejoin="round"/>
</svg>
