<svg width="1856" height="1768" viewBox="0 0 1856 1768" fill="none" xmlns="http://www.w3.org/2000/svg">
<path d="M157.785 1767.73H1727.54C1735.74 1756.61 1800.68 1616.39 1772.13 1520.17C1748.11 1439.25 1708.5 1361.79 1717.39 1262.52C1730.33 1118.13 1830.18 1040.08 1781.99 910.787C1678.34 632.697 1661.45 895.766 1500.45 705.32C1382.51 565.814 1584.16 501.569 1437.29 296.029C1202.81 -32.1012 454.123 -150.539 354.743 272.759C267.161 645.814 -41.9363 417.834 83.1209 809.375C212.211 1213.54 -0.230348 1094.27 0.533305 1326.6C1.36161 1578.95 70.7126 1747.56 157.785 1767.73Z" fill="#F05F23" fill-opacity="0.2"/>
<path d="M909.65 1287.79L988.941 1212.25L1114.83 1344.41L1248.38 1217.19L1321.93 1294.4L1188.38 1421.61L1314.94 1554.46L1235.65 1630L1109.09 1497.15L975.547 1624.37L901.999 1547.16L1035.54 1419.94L909.65 1287.79Z" fill="#537FF2" fill-opacity="0.2" stroke="#537FF2" stroke-opacity="0.3" stroke-width="12.2946" stroke-miterlimit="2.302" stroke-linejoin="round"/>
<path d="M88.4773 272.799L141.529 222.261L225.76 310.68L315.109 225.562L364.318 277.218L274.968 362.335L359.643 451.219L306.59 501.758L221.917 412.874L132.567 497.991L83.3584 446.336L172.708 361.219L88.4773 272.799Z" fill="#537FF2" fill-opacity="0.2" stroke="#537FF2" stroke-opacity="0.3" stroke-width="8.22586" stroke-miterlimit="1.5402" stroke-linejoin="round"/>
<path d="M1507.05 111.216L1533.65 85.875L1575.89 130.21L1620.69 87.5304L1645.36 113.431L1600.56 156.111L1643.02 200.678L1616.42 226.019L1573.96 181.451L1529.16 224.13L1504.48 198.23L1549.28 155.551L1507.05 111.216Z" fill="#FFF4DB" stroke="#FBDB98" stroke-width="4.1258" stroke-miterlimit="10" stroke-linejoin="round"/>
<path d="M1719.18 827.82L1772.53 819.747L1779.5 865.788L1726.14 873.86L1719.18 827.82ZM1714.29 766.228L1716.09 763.464C1747.09 756.002 1757.09 747.01 1755.33 735.363L1755.29 735.093C1753.9 725.884 1745.72 721.304 1732.72 723.271C1719.99 725.197 1706.9 733.827 1695.89 747.128L1663.4 715.477C1677.42 696.456 1698.09 681.139 1729.24 676.426C1769.05 670.403 1800.22 687.849 1805.55 723.056L1805.63 723.598C1810.79 757.722 1790.26 775.789 1761.3 787.649L1760.67 805.473L1727.9 810.432L1714.29 766.228Z" fill="#537FF2" fill-opacity="0.2" stroke="#537FF2" stroke-opacity="0.3" stroke-width="5.76738" stroke-miterlimit="1.3842" stroke-linejoin="round"/>
<path d="M57.0532 1423.51L142.21 1446.27L122.573 1519.76L37.416 1497L57.0532 1423.51ZM89.9591 1328.1L94.4565 1325.14C145.756 1334.21 166.597 1327.28 171.564 1308.69L171.679 1308.26C175.607 1293.56 166.362 1281.36 145.612 1275.82C125.296 1270.39 100.046 1274.76 74.877 1287.48L46.8971 1218.87C80.3129 1199.55 121.274 1190.12 170.985 1203.4C234.529 1220.38 269.811 1266.86 254.795 1323.06L254.564 1323.92C240.01 1378.39 197.461 1392.03 146.361 1390.88L133.781 1417.15L81.4762 1403.18L89.9591 1328.1Z" fill="#537FF2" fill-opacity="0.2" stroke="#537FF2" stroke-opacity="0.3" stroke-width="9.42053" stroke-miterlimit="2.2612" stroke-linejoin="round"/>
<path fill-rule="evenodd" clip-rule="evenodd" d="M1665.21 155.946C1676 155.946 1686.35 160.234 1693.98 167.866C1701.62 175.499 1705.9 185.85 1705.9 196.644C1705.9 369.941 1705.9 1045.4 1705.9 1218.7C1705.9 1229.49 1701.62 1239.84 1693.98 1247.48C1686.35 1255.11 1676 1259.39 1665.21 1259.39C1465.06 1259.39 586.831 1259.39 386.688 1259.39C375.894 1259.39 365.543 1255.11 357.91 1247.48C350.278 1239.84 345.99 1229.49 345.99 1218.7C345.99 1045.4 345.99 369.941 345.99 196.644C345.99 185.85 350.278 175.499 357.91 167.866C365.543 160.234 375.894 155.946 386.688 155.946C586.831 155.946 1465.06 155.946 1665.21 155.946Z" fill="white" stroke="#434D56" stroke-width="2.7" stroke-miterlimit="1.5" stroke-linecap="round" stroke-linejoin="round"/>
<path fill-rule="evenodd" clip-rule="evenodd" d="M1665.21 155.946C1687.68 155.946 1705.9 174.167 1705.9 196.644V288.571H345.99V196.644C345.99 174.167 364.211 155.946 386.688 155.946C586.831 155.946 1465.06 155.946 1665.21 155.946Z" fill="#434D56"/>
<path d="M1626.87 244.977C1639.42 244.977 1649.59 234.806 1649.59 222.26C1649.59 209.714 1639.42 199.543 1626.87 199.543C1614.32 199.543 1604.15 209.714 1604.15 222.26C1604.15 234.806 1614.32 244.977 1626.87 244.977Z" fill="#F05F23"/>
<path d="M1521.83 244.977C1534.38 244.977 1544.55 234.806 1544.55 222.26C1544.55 209.714 1534.38 199.543 1521.83 199.543C1509.28 199.543 1499.11 209.714 1499.11 222.26C1499.11 234.806 1509.28 244.977 1521.83 244.977Z" fill="#F05F23"/>
<path d="M1416.79 244.977C1429.34 244.977 1439.51 234.806 1439.51 222.26C1439.51 209.714 1429.34 199.543 1416.79 199.543C1404.24 199.543 1394.07 209.714 1394.07 222.26C1394.07 234.806 1404.24 244.977 1416.79 244.977Z" fill="#F05F23"/>
<g opacity="0.85">
<g opacity="0.47">
<mask id="mask0_2247_268" style="mask-type:luminance" maskUnits="userSpaceOnUse" x="682" y="575" width="242" height="263">
<path d="M923.286 575.165H682.25V837.543H923.286V575.165Z" fill="white"/>
</mask>
<g mask="url(#mask0_2247_268)">
<path d="M941.187 686.8L977.001 828.883C977.098 829.288 976.837 829.711 976.403 829.816L713.351 896.071C712.92 896.183 712.488 895.934 712.384 895.531L679.6 765.447L708.693 727.042L738.094 743.156L779.03 707.246L809.527 733.019L835.584 700.888L865.002 720.589L896.751 686.71L920.322 712.038L941.187 686.8Z" fill="#F4F4F4" stroke="#537FF2" stroke-width="1.37629" stroke-miterlimit="6.889"/>
<path d="M909.327 563.41L934.659 663.914L913.795 689.152L890.223 663.824L858.474 697.704L829.057 678.002L802.999 710.133L772.503 684.36L731.565 720.27L702.165 704.156L673.071 742.561L628.538 565.874C628.434 565.471 628.702 565.046 629.133 564.934L820.43 516.758L833.967 570.482C835.529 576.67 842.07 580.352 848.588 578.708L909.327 563.41Z" fill="#F4F4F4" stroke="#537FF2" stroke-width="1.37629" stroke-miterlimit="6.889"/>
</g>
</g>
<g opacity="0.47">
<mask id="mask1_2247_268" style="mask-type:luminance" maskUnits="userSpaceOnUse" x="1137" y="560" width="235" height="279">
<path d="M1371.33 560.938H1137.09V838.593H1371.33V560.938Z" fill="white"/>
</mask>
<g mask="url(#mask1_2247_268)">
<path d="M1423.38 640.177L1353.95 899.99C1353.83 900.425 1353.38 900.686 1352.95 900.57L1085.49 829.101C1085.06 828.985 1084.8 828.533 1084.91 828.098L1172.71 499.542C1172.83 499.107 1173.28 498.846 1173.71 498.962L1368.21 550.934L1352.83 608.475C1351.06 615.106 1354.99 621.903 1361.62 623.675L1423.38 640.177Z" fill="#F4F4F4" stroke="#F05F23" stroke-width="1.37629" stroke-miterlimit="6.889"/>
<path d="M1363.65 603.062L1374.82 561.274L1415.22 626.619L1370.34 614.628C1365.3 613.281 1362.31 608.103 1363.65 603.062Z" fill="#F05F23"/>
<path d="M1213.34 765.915L1265.23 779.781L1253.26 824.559L1201.38 810.693L1213.34 765.915ZM1233.39 707.778L1236.13 705.971C1267.39 711.501 1280.09 707.275 1283.12 695.948L1283.19 695.685C1285.58 686.73 1279.95 679.299 1267.3 675.921C1254.92 672.613 1239.54 675.274 1224.2 683.028L1207.15 641.221C1227.51 629.447 1252.47 623.7 1282.76 631.794C1321.48 642.14 1342.98 670.462 1333.83 704.704L1333.69 705.231C1324.82 738.418 1298.9 746.729 1267.76 746.028L1260.09 762.04L1228.22 753.524L1233.39 707.778Z" fill="#537FF2" fill-opacity="0.5"/>
</g>
</g>
<path d="M1213.62 557.294V919.782C1213.62 920.39 1213.13 920.887 1212.52 920.887H839.372C838.764 920.887 838.267 920.391 838.267 919.783V461.383C838.267 460.776 838.763 460.278 839.371 460.278H1110.73V540.558C1110.73 549.809 1118.21 557.294 1127.46 557.294H1213.62Z" fill="#F4F4F4" stroke="#F05F23" stroke-width="1.37629" stroke-miterlimit="6.889"/>
<path d="M1119.88 532.211V473.909L1195.22 544.945H1132.61C1125.58 544.945 1119.88 539.244 1119.88 532.211Z" fill="#F05F23"/>
<path d="M899.498 637.664L946.955 592.455L1022.3 671.551L1102.23 595.408L1146.25 641.617L1066.32 717.759L1142.07 797.27L1094.61 842.479L1018.87 762.968L938.938 839.109L894.919 792.901L974.847 716.76L899.498 637.664Z" fill="#F05F23"/>
<path d="M850.82 1013.58H862.763V1082.11H852.7L814.992 1033.36V1082.11H803.049V1013.58H814.186L850.82 1060.96V1013.58Z" fill="#394249"/>
<path d="M946.36 1061.45C944.598 1065.76 942.118 1069.53 938.921 1072.76C935.723 1075.99 931.938 1078.55 927.566 1080.44C923.193 1082.34 918.365 1083.28 913.079 1083.28C907.793 1083.28 902.962 1082.35 898.591 1080.49C894.218 1078.63 890.466 1076.1 887.333 1072.91C884.201 1069.71 881.753 1065.96 879.991 1061.65C878.229 1057.34 877.348 1052.77 877.348 1047.94C877.348 1043.12 878.229 1038.55 879.991 1034.24C881.753 1029.93 884.233 1026.16 887.431 1022.93C890.628 1019.7 894.413 1017.14 898.786 1015.25C903.158 1013.36 907.988 1012.41 913.274 1012.41C918.56 1012.41 923.389 1013.34 927.762 1015.2C932.133 1017.06 935.887 1019.59 939.019 1022.79C942.152 1025.98 944.599 1029.74 946.361 1034.04C948.124 1038.35 949.005 1042.92 949.005 1047.75C949.004 1052.58 948.123 1057.15 946.36 1061.45ZM934.663 1038.5C933.52 1035.53 931.922 1032.93 929.866 1030.72C927.81 1028.5 925.346 1026.74 922.475 1025.43C919.602 1024.12 916.47 1023.47 913.078 1023.47C909.683 1023.47 906.568 1024.11 903.729 1025.38C900.89 1026.65 898.458 1028.38 896.436 1030.57C894.413 1032.76 892.83 1035.33 891.688 1038.3C890.545 1041.27 889.975 1044.42 889.975 1047.75C889.975 1051.08 890.546 1054.23 891.688 1057.19C892.829 1060.16 894.429 1062.76 896.484 1064.98C898.54 1067.2 901.003 1068.96 903.875 1070.26C906.746 1071.57 909.879 1072.22 913.272 1072.22C916.665 1072.22 919.782 1071.58 922.621 1070.31C925.46 1069.04 927.891 1067.31 929.914 1065.12C931.936 1062.94 933.519 1060.36 934.662 1057.39C935.803 1054.42 936.375 1051.27 936.375 1047.94C936.375 1044.62 935.804 1041.47 934.663 1038.5Z" fill="#394249"/>
<path d="M1052.28 1061.31C1050.51 1065.51 1048.02 1069.15 1044.79 1072.22C1041.56 1075.29 1037.71 1077.7 1033.24 1079.46C1028.77 1081.23 1023.85 1082.11 1018.51 1082.11H992.955V1013.58H1018.51C1023.86 1013.58 1028.77 1014.45 1033.24 1016.18C1037.71 1017.91 1041.56 1020.31 1044.79 1023.37C1048.02 1026.44 1050.52 1030.06 1052.28 1034.24C1054.04 1038.42 1054.92 1042.92 1054.92 1047.75C1054.92 1052.58 1054.04 1057.1 1052.28 1061.31ZM1040.57 1038.56C1039.43 1035.7 1037.83 1033.23 1035.77 1031.14C1033.7 1029.04 1031.2 1027.4 1028.26 1026.22C1025.31 1025.04 1022.04 1024.45 1018.44 1024.45H1004.9V1071.24H1018.44C1022.04 1071.24 1025.31 1070.67 1028.26 1069.52C1031.2 1068.37 1033.7 1066.77 1035.77 1064.71C1037.83 1062.64 1039.43 1060.18 1040.58 1057.33C1041.72 1054.48 1042.29 1051.35 1042.29 1047.94C1042.29 1044.53 1041.72 1041.41 1040.57 1038.56Z" fill="#394249"/>
<path d="M1123.93 1082.11H1111.21L1104.26 1065.56H1071.86L1064.81 1082.11H1052.47L1082.62 1013.09H1093.78L1123.93 1082.11ZM1088.01 1027.48L1076.26 1054.89H1099.85L1088.01 1027.48Z" fill="#394249"/>
<path d="M1156.34 1082.11H1144.2V1024.74H1122.47V1013.58H1178.07V1024.74H1156.34V1082.11H1156.34Z" fill="#394249"/>
<path d="M1248.75 1082.11H1236.02L1229.07 1065.56H1196.67L1189.62 1082.11H1177.29L1207.44 1013.09H1218.6L1248.75 1082.11ZM1212.82 1027.48L1201.07 1054.89H1224.67L1212.82 1027.48Z" fill="#394249"/>
<path d="M955.362 1118.36C954.556 1118.89 953.686 1119.35 952.754 1119.75C951.82 1120.14 950.817 1120.46 949.743 1120.68C948.669 1120.91 947.544 1121.02 946.368 1121.02C944.271 1121.02 942.366 1120.65 940.653 1119.93C938.939 1119.2 937.475 1118.19 936.261 1116.91C935.046 1115.63 934.107 1114.11 933.442 1112.37C932.777 1110.62 932.445 1108.73 932.445 1106.69C932.445 1104.73 932.784 1102.88 933.462 1101.14C934.139 1099.39 935.092 1097.86 936.319 1096.55C937.547 1095.24 939.009 1094.21 940.711 1093.44C942.411 1092.67 944.272 1092.29 946.291 1092.29C947.467 1092.29 948.535 1092.37 949.494 1092.55C950.453 1092.72 951.341 1092.96 952.159 1093.28C952.977 1093.6 953.751 1093.99 954.479 1094.45C955.208 1094.91 955.917 1095.45 956.608 1096.06L953.617 1099.75C953.105 1099.3 952.581 1098.89 952.044 1098.52C951.508 1098.15 950.944 1097.84 950.356 1097.58C949.768 1097.33 949.123 1097.14 948.419 1096.99C947.715 1096.84 946.942 1096.77 946.099 1096.77C944.871 1096.77 943.727 1097.03 942.666 1097.55C941.604 1098.06 940.684 1098.77 939.904 1099.67C939.124 1100.57 938.51 1101.62 938.063 1102.81C937.615 1104.01 937.392 1105.28 937.392 1106.63C937.392 1108.06 937.609 1109.39 938.043 1110.61C938.478 1111.83 939.098 1112.88 939.903 1113.77C940.708 1114.66 941.668 1115.35 942.78 1115.86C943.892 1116.36 945.138 1116.61 946.519 1116.61C947.797 1116.61 948.993 1116.42 950.105 1116.03C951.217 1115.65 952.182 1115.14 953.001 1114.5V1109.27H946.138V1105.02H957.568V1116.69C956.902 1117.27 956.167 1117.83 955.362 1118.36Z" fill="#F9F9F9"/>
<path d="M989.556 1112.17C988.866 1113.91 987.893 1115.44 986.641 1116.75C985.388 1118.06 983.905 1119.1 982.192 1119.87C980.478 1120.63 978.587 1121.02 976.515 1121.02C974.445 1121.02 972.552 1120.64 970.839 1119.89C969.125 1119.13 967.655 1118.11 966.428 1116.81C965.2 1115.51 964.242 1113.99 963.552 1112.25C962.862 1110.5 962.516 1108.65 962.516 1106.69C962.516 1104.73 962.862 1102.88 963.552 1101.14C964.242 1099.39 965.213 1097.86 966.466 1096.55C967.719 1095.24 969.202 1094.21 970.915 1093.44C972.628 1092.67 974.52 1092.29 976.592 1092.29C978.664 1092.29 980.555 1092.66 982.268 1093.42C983.981 1094.17 985.452 1095.2 986.679 1096.49C987.906 1097.79 988.866 1099.31 989.556 1101.06C990.246 1102.8 990.591 1104.66 990.591 1106.61C990.591 1108.57 990.246 1110.42 989.556 1112.17ZM984.972 1102.86C984.525 1101.66 983.899 1100.61 983.093 1099.71C982.287 1098.81 981.322 1098.1 980.197 1097.57C979.071 1097.04 977.843 1096.77 976.514 1096.77C975.185 1096.77 973.964 1097.03 972.852 1097.54C971.74 1098.06 970.787 1098.76 969.995 1099.65C969.202 1100.54 968.582 1101.58 968.135 1102.78C967.687 1103.99 967.464 1105.26 967.464 1106.61C967.464 1107.96 967.687 1109.24 968.135 1110.44C968.582 1111.65 969.209 1112.7 970.014 1113.6C970.82 1114.5 971.785 1115.21 972.91 1115.74C974.034 1116.27 975.262 1116.53 976.592 1116.53C977.921 1116.53 979.143 1116.28 980.255 1115.76C981.367 1115.24 982.319 1114.54 983.112 1113.66C983.904 1112.77 984.524 1111.73 984.971 1110.52C985.418 1109.32 985.643 1108.04 985.643 1106.69C985.644 1105.34 985.419 1104.07 984.972 1102.86Z" fill="#F9F9F9"/>
<path d="M1026.26 1094.67C1027.85 1095.94 1028.64 1097.68 1028.64 1099.88C1028.64 1100.73 1028.53 1101.48 1028.31 1102.15C1028.1 1102.81 1027.82 1103.38 1027.48 1103.87C1027.13 1104.36 1026.73 1104.8 1026.26 1105.17C1025.79 1105.54 1025.32 1105.86 1024.83 1106.12C1025.62 1106.41 1026.34 1106.75 1026.99 1107.13C1027.63 1107.51 1028.19 1107.97 1028.66 1108.5C1029.13 1109.03 1029.5 1109.65 1029.75 1110.38C1030.01 1111.11 1030.13 1111.94 1030.13 1112.9C1030.13 1114.14 1029.9 1115.23 1029.42 1116.18C1028.95 1117.13 1028.28 1117.93 1027.41 1118.58C1026.55 1119.23 1025.5 1119.72 1024.27 1120.05C1023.05 1120.38 1021.7 1120.54 1020.22 1120.54H1007.81V1092.76H1019.83C1022.54 1092.76 1024.68 1093.4 1026.26 1094.67ZM1022.58 1103.57C1023.5 1102.95 1023.96 1101.98 1023.96 1100.68C1023.96 1099.53 1023.56 1098.65 1022.75 1098.03C1021.95 1097.4 1020.78 1097.09 1019.26 1097.09H1012.49V1104.51H1018.91C1020.44 1104.51 1021.66 1104.2 1022.58 1103.57ZM1024.08 1115.24C1024.99 1114.6 1025.45 1113.64 1025.45 1112.37C1025.45 1111.18 1025 1110.25 1024.1 1109.59C1023.19 1108.93 1021.81 1108.6 1019.95 1108.6H1012.49V1116.22H1020.29C1021.9 1116.22 1023.16 1115.89 1024.08 1115.24Z" fill="#F9F9F9"/>
<path d="M1061.2 1120.54H1056.21L1053.49 1113.84H1040.79L1038.03 1120.54H1033.2L1045.01 1092.57H1049.38L1061.2 1120.54ZM1047.12 1098.4L1042.52 1109.51H1051.76L1047.12 1098.4Z" fill="#F9F9F9"/>
<path d="M1082.94 1118.14C1082.19 1118.74 1081.38 1119.25 1080.51 1119.69C1079.64 1120.13 1078.68 1120.46 1077.65 1120.68C1076.61 1120.9 1075.47 1121.02 1074.22 1121.02C1072.25 1121.02 1070.43 1120.65 1068.77 1119.91C1067.11 1119.17 1065.67 1118.16 1064.46 1116.87C1063.24 1115.59 1062.29 1114.07 1061.6 1112.33C1060.91 1110.58 1060.56 1108.7 1060.56 1106.69C1060.56 1104.71 1060.9 1102.84 1061.58 1101.1C1062.26 1099.35 1063.21 1097.82 1064.44 1096.51C1065.66 1095.2 1067.12 1094.17 1068.81 1093.42C1070.5 1092.66 1072.36 1092.29 1074.41 1092.29C1075.64 1092.29 1076.76 1092.39 1077.77 1092.6C1078.78 1092.82 1079.7 1093.11 1080.55 1093.5C1081.39 1093.88 1082.17 1094.34 1082.89 1094.87C1083.6 1095.4 1084.28 1095.98 1084.92 1096.61L1081.89 1100.22C1080.81 1099.19 1079.68 1098.36 1078.47 1097.72C1077.27 1097.09 1075.91 1096.77 1074.37 1096.77C1073.09 1096.77 1071.91 1097.03 1070.82 1097.54C1069.74 1098.06 1068.8 1098.76 1068 1099.65C1067.21 1100.54 1066.6 1101.57 1066.16 1102.76C1065.73 1103.95 1065.51 1105.24 1065.51 1106.61C1065.51 1107.99 1065.73 1109.28 1066.16 1110.48C1066.6 1111.69 1067.21 1112.74 1068 1113.64C1068.8 1114.54 1069.74 1115.24 1070.82 1115.76C1071.91 1116.28 1073.09 1116.53 1074.37 1116.53C1076.01 1116.53 1077.41 1116.21 1078.59 1115.56C1079.77 1114.91 1080.93 1114.03 1082.08 1112.92L1085.11 1116.1C1084.42 1116.86 1083.7 1117.55 1082.94 1118.14Z" fill="#F9F9F9"/>
<path d="M1113.8 1120.54H1108.08L1098.92 1108.04L1094.74 1112.48V1120.54H1090.06V1092.76H1094.74V1106.73L1107.51 1092.76H1113.3L1102.14 1104.71L1113.8 1120.54Z" fill="#F9F9F9"/>
</g>
<path d="M382.717 536.149C382.68 535.717 382.549 535.298 382.318 534.93C381.761 534.043 380.718 532.848 380.439 535.767C380.118 539.132 384.301 553.905 387.18 559.037C387.837 560.21 387.573 561.681 386.516 562.511L384.662 563.969C384.08 564.427 383.674 565.099 383.635 565.839C383.593 566.672 384.037 567.493 386.219 567.02C390.189 566.161 393.876 561.075 391.506 557.786C389.182 554.562 383.548 545.865 382.717 536.149Z" fill="#F69D7D"/>
<path d="M388.519 578.102C388.473 579.876 388.37 581.548 388.222 583.136C386.336 604.058 376.335 609.76 359.266 609.676C327.21 609.509 298.338 565.12 293.583 545.312C285.207 510.376 298.643 507.912 323.625 494.45C378.396 464.932 381.48 514.016 386.458 549.593C388.054 561.043 388.733 570.432 388.519 578.102Z" fill="#FBC0A4"/>
<path d="M329.225 555.954C329.002 557.356 328.612 558.703 328.027 559.91C328.027 559.91 322.901 563.94 317.255 558.257C316.641 557.635 316.001 556.947 315.351 556.204C308.052 547.865 299.304 532.366 309.676 526.283C310.652 525.708 311.599 525.271 312.509 524.956C322.055 521.659 327.47 532.004 327.228 539.071C327.228 539.071 327.228 539.08 327.237 539.089C327.34 539.665 329.54 551.348 328.324 556.474C328.324 556.474 328.668 556.38 329.225 555.954Z" fill="#FBC0A4"/>
<path d="M329.225 555.953C328.668 556.38 328.324 556.473 328.324 556.473C329.541 551.347 327.34 539.665 327.237 539.089C327.396 539.563 330.432 548.608 329.225 555.953Z" fill="#FBC0A4"/>
<path d="M310.941 534.89C310.044 539.18 312.514 542.958 315.257 546.376C318.115 549.939 319.223 550.591 320.352 551.243C321.48 551.894 322.506 551.941 322.981 550.728C323.44 549.556 322.539 548.341 321.829 547.302C321.12 546.261 318.863 544.324 319.867 543.565C320.335 543.211 321.372 542.339 321.214 541.373C321.008 540.113 320.936 539.345 320.742 538.084C320.489 536.445 319.852 534.669 319.309 533.776C318.411 532.295 316.925 530.879 315.201 531.039C313.396 531.205 311.313 533.117 310.941 534.89Z" fill="#F69D7D"/>
<path d="M350.768 622.862C343.636 648.715 361.764 671.606 361.764 671.606L261.74 668.576C285.514 652.52 285.941 601.547 285.941 601.547C283.601 587.124 285.531 575.037 302.887 566.465C330.784 552.685 370.53 550.465 378.414 572.631C388.174 600.092 371.069 599.831 359.265 609.675C357.511 611.133 355.876 612.815 354.465 614.847C352.923 617.049 351.651 619.677 350.768 622.862Z" fill="#FBC0A4"/>
<path d="M376.78 478.756C362.015 514.527 336.226 482.702 336.635 518.483C336.97 547.122 333.521 546.483 331.301 548.184C330.744 548.611 328.373 549.695 328.373 549.695C328.373 545.212 328.268 544.737 327.648 540.399C327.318 538.094 326.659 535.849 325.633 533.759C323.445 529.304 318.996 522.715 312.508 524.956C311.599 525.272 310.652 525.708 309.676 526.284C299.304 532.367 308.052 547.865 315.351 556.205C311.45 573.905 310.011 599.479 300.659 603.956C273.617 616.919 265.714 592.728 245.962 548.219C226.2 503.709 234.505 483.188 247.039 470.83C265.991 452.145 327.368 466.119 342.6 449.742C365.688 424.918 391.546 442.984 376.78 478.756Z" fill="#3E3533"/>
<path d="M359.267 609.675C357.511 611.133 355.876 612.814 354.466 614.848C332.818 611.328 327.423 594.714 327.246 594.139C340.72 609.526 358.551 609.676 359.248 609.675L359.267 609.675Z" fill="#F69D7D"/>
<g opacity="0.05">
<path d="M361.927 442.662C361.927 442.662 382.567 456.785 367.54 487.202C367.54 487.202 385.464 458.233 361.927 442.662Z" fill="#FAFCFB"/>
</g>
<g opacity="0.15">
<path d="M245.324 535.182C245.324 535.182 227.762 480.683 263.793 467.647C263.793 467.647 231.926 477.786 245.324 535.182Z" fill="black"/>
</g>
<g opacity="0.15">
<path d="M337.449 504.221C333.058 504.412 328.69 504.851 324.364 505.551C320.032 506.187 315.737 507.063 311.517 508.194L309.931 508.607L308.363 509.078C307.319 509.394 306.262 509.671 305.229 510.02C303.163 510.721 301.09 511.403 299.078 512.241C297.026 512.983 295.067 513.936 293.075 514.814C292.09 515.277 291.138 515.807 290.169 516.299C289.201 516.797 288.232 517.292 287.312 517.854C285.44 518.933 283.658 520.163 281.976 521.512C280.278 522.847 278.707 524.335 277.229 525.91C274.257 529.054 271.81 532.666 269.612 536.432C267.399 540.195 265.533 544.182 263.231 547.967C262.064 549.844 260.74 551.655 259.134 553.196C257.541 554.75 255.552 555.886 253.436 556.473C255.505 555.726 257.363 554.49 258.844 552.906C260.331 551.321 261.528 549.49 262.58 547.583C264.702 543.772 266.458 539.734 268.57 535.848C270.647 531.947 273.13 528.208 276.141 524.907C277.632 523.246 279.263 521.706 281.01 520.312C282.746 518.905 284.582 517.622 286.511 516.497C287.461 515.904 288.451 515.407 289.44 514.906C290.431 514.409 291.405 513.877 292.41 513.41C294.442 512.528 296.443 511.569 298.532 510.83C302.665 509.243 306.915 507.974 311.221 506.993C319.822 505.007 328.654 503.964 337.449 504.221Z" fill="black"/>
</g>
<path d="M388.518 578.131C388.472 579.859 388.373 581.491 388.23 583.042C385.382 582.665 382.289 582.671 380.282 582.754C377.523 582.846 375.657 583.032 375.267 582.373C375.091 582.066 375.323 581.583 375.973 581.007C376.623 580.441 377.7 579.809 379.186 579.262C380.653 578.713 382.538 578.286 384.702 578.147C385.695 578.081 387.31 578.062 388.518 578.131Z" fill="#3E3533"/>
<path d="M357.678 533.968C357.733 533.85 357.793 533.741 357.853 533.633C361.183 527.616 366.184 524.207 372.33 523.886C372.863 523.856 373.438 523.864 374.094 524.398C375.342 525.417 375.967 526.84 376.661 528.974C369.073 528.088 362.592 530.648 357.815 536.448C357.364 535.811 357.412 535.739 357.419 535.087C357.425 534.616 357.537 534.27 357.678 533.968Z" fill="#3E3533"/>
<path d="M366.49 542.071C367.174 545.218 369.839 547.311 372.446 546.745C375.052 546.18 376.61 543.169 375.927 540.022C375.243 536.875 372.577 534.782 369.97 535.347C367.365 535.913 365.807 538.923 366.49 542.071Z" fill="#3E3533"/>
<path d="M473.342 1673.3C473.342 1673.3 471.712 1696.42 473.341 1709.45C474.97 1722.47 425.791 1722.8 425.791 1722.8L425.791 1673.3L473.342 1673.3Z" fill="#FBC0A4"/>
<path d="M423.207 1714.34L423.806 1753.15L423.862 1754.48C423.834 1755.99 425.045 1757.23 426.561 1757.23H451.33C452.541 1757.23 454.161 1756.55 454.481 1755.39L455.111 1753.77C455.175 1753.55 455.261 1753.34 455.367 1753.15C456.058 1751.92 457.625 1751.41 458.943 1752.09C462.988 1754.17 471.178 1754.81 483.027 1756.4C486.873 1756.92 491.117 1757.23 495.725 1757.23H546.166C546.166 1757.23 547.362 1757.06 548.644 1756.4C551.173 1755.09 554.036 1751.86 548.808 1744.15C542.897 1735.44 490.944 1744.41 478.049 1705.59C478.049 1705.59 475.407 1700.14 471.512 1705.59C467.858 1710.7 434.993 1714.28 424.917 1712.84C424.005 1712.71 423.193 1713.42 423.207 1714.34Z" fill="#323B42"/>
<g opacity="0.35">
<path d="M423.805 1753.15L423.861 1754.48C423.833 1755.99 425.044 1757.23 426.56 1757.23H451.329C452.54 1757.23 454.16 1756.56 454.48 1755.39L455.111 1753.77C455.175 1753.55 455.26 1753.34 455.367 1753.15H423.805Z" fill="black"/>
</g>
<g opacity="0.35">
<path d="M483.027 1756.39C486.872 1756.91 491.117 1757.22 495.725 1757.23L546.166 1757.22C546.166 1757.22 547.362 1757.06 548.644 1756.39L483.027 1756.39Z" fill="black"/>
</g>
<path d="M228.352 1673.3C228.352 1673.3 226.723 1696.42 228.352 1709.45C229.981 1722.47 180.801 1722.8 180.801 1722.8L180.802 1673.3L228.352 1673.3Z" fill="#FBC0A4"/>
<path d="M178.218 1714.34L178.816 1753.15L178.873 1754.48C178.845 1755.99 180.056 1757.23 181.572 1757.23H206.341C207.552 1757.23 209.172 1756.55 209.492 1755.39L210.122 1753.77C210.186 1753.55 210.271 1753.34 210.378 1753.15C211.069 1751.92 212.636 1751.41 213.954 1752.09C217.999 1754.17 226.188 1754.81 238.038 1756.4C241.884 1756.92 246.128 1757.23 250.735 1757.23H301.177C301.177 1757.23 302.373 1757.06 303.655 1756.4C306.183 1755.09 309.046 1751.86 303.819 1744.15C297.908 1735.44 245.954 1744.41 233.06 1705.59C233.06 1705.59 230.418 1700.14 226.523 1705.59C222.869 1710.7 190.004 1714.28 179.927 1712.84C179.015 1712.71 178.204 1713.42 178.218 1714.34Z" fill="#323B42"/>
<g opacity="0.35">
<path d="M178.815 1753.15L178.872 1754.48C178.844 1755.99 180.055 1757.23 181.571 1757.23H206.34C207.551 1757.23 209.171 1756.56 209.491 1755.39L210.122 1753.77C210.186 1753.55 210.271 1753.34 210.378 1753.15H178.815Z" fill="black"/>
</g>
<g opacity="0.35">
<path d="M238.037 1756.39C241.883 1756.91 246.127 1757.22 250.735 1757.23L301.177 1757.22C301.177 1757.22 302.373 1757.06 303.654 1756.39L238.037 1756.39Z" fill="black"/>
</g>
<path fill-rule="evenodd" clip-rule="evenodd" d="M367.235 547.53C372.845 550.808 375.274 552.452 375.274 552.452C375.274 552.452 369.101 564.205 363.873 572.759C363.298 573.694 362.738 574.59 362.202 575.43C360.519 578.042 359.039 580.095 358.034 580.998C358.034 580.998 355.182 578.049 351.849 575.363C349.928 573.814 347.85 572.354 346.071 571.596C341.2 569.524 332.158 568.558 322.639 567.884C313.115 567.209 309.768 563.226 305.161 560.729C302.032 559.032 301.192 557.511 301.18 556.378C301.178 555.846 301.354 555.398 301.566 555.059C302.234 554 307.541 550.563 324.88 557.603C324.88 557.603 312.405 546.938 307.571 545.037C302.741 543.137 293.538 541.482 289.179 540.672C284.82 539.862 281.591 537.048 284.496 532.784C284.496 532.784 279.197 532.482 279.248 529.236C279.303 525.996 281.279 523.871 285.307 523.705C285.307 523.705 284.992 519.969 291.124 519.172C297.256 518.374 300.669 518.059 300.669 518.059C300.669 518.059 300.011 515.053 308.449 514.491C313.576 514.148 317.743 513.661 322.288 514.692C325.225 515.356 328.315 516.654 331.927 519.027C341.124 525.076 346.029 529.354 350.831 535.07C355.632 540.79 356.039 541.133 363.977 545.655C365.166 546.333 366.25 546.954 367.235 547.53Z" fill="#FBC0A4"/>
<path fill-rule="evenodd" clip-rule="evenodd" d="M302.599 558.97C303.091 557.97 304.093 556.647 305.875 557.004C308.656 557.56 311.248 559.499 311.336 560.832C311.381 561.573 310.585 562.778 309.872 563.703C308.243 562.667 306.782 561.607 305.162 560.729C304.03 560.116 303.199 559.526 302.599 558.97Z" fill="#FDE6DB"/>
<path fill-rule="evenodd" clip-rule="evenodd" d="M325.871 544.526C325.784 544.328 325.737 544.114 325.649 543.916C325.646 543.91 314.904 536.388 309.648 534.962C305.135 533.735 292.549 532.915 286.807 532.594C285.544 532.523 284.902 532.571 284.902 532.571C284.781 532.64 284.7 532.761 284.697 532.901C284.69 533.04 284.752 533.169 284.868 533.249C284.918 533.282 284.966 533.32 285.024 533.339C285.037 533.347 303.828 534.617 309.335 536.104C312.995 537.093 320.535 541.581 324.878 544.328C324.973 544.387 325.068 544.447 325.168 544.507C325.185 544.522 325.2 544.546 325.226 544.547C325.551 544.558 325.551 544.517 325.871 544.526Z" fill="#F69D7D"/>
<path fill-rule="evenodd" clip-rule="evenodd" d="M333.529 538.257C333.396 538.095 333.439 537.829 333.307 537.667C333.289 537.653 321.041 529.58 315.978 527.465C315.145 527.118 313.143 526.27 300.372 524.775C293.711 523.992 285.642 523.348 285.63 523.356C285.624 523.359 285.618 523.363 285.612 523.367C285.493 523.427 285.413 523.543 285.402 523.675C285.386 523.807 285.443 523.935 285.548 524.018C285.605 524.063 285.657 524.106 285.718 524.132C285.728 524.134 295.459 525.201 304.569 526.576C314.398 528.057 315.235 528.665 315.565 528.807C315.816 528.91 318.281 529.844 328.791 535.914C330.023 536.629 331.802 537.668 332.837 538.277C332.859 538.293 332.874 538.317 332.899 538.318C333.215 538.306 333.213 538.269 333.529 538.257Z" fill="#F69D7D"/>
<path fill-rule="evenodd" clip-rule="evenodd" d="M338.889 531.912C338.77 531.738 338.799 531.49 338.68 531.315C338.665 531.291 327.122 523.227 321.384 521.231C321.255 521.184 316.921 519.433 303.138 517.86C301.769 517.707 301.222 517.668 301.221 517.673C301.216 517.672 301.21 517.675 301.208 517.68C301.082 517.749 301.006 517.871 300.992 518.013C300.985 518.152 301.041 518.285 301.155 518.375C301.191 518.399 301.221 518.423 301.263 518.443C301.361 518.493 316.173 520.418 322.063 522.904C322.364 523.034 326.696 524.753 336.927 531.115C338.22 531.922 338.207 531.956 338.255 531.952C338.465 531.945 338.679 531.919 338.889 531.912Z" fill="#F69D7D"/>
<path fill-rule="evenodd" clip-rule="evenodd" d="M351.846 575.362L345.218 575.319C345.218 575.319 322.583 571.383 316.449 570.941C310.315 570.498 303.323 563.436 300.792 556.276L301.178 556.377C301.186 557.509 302.028 559.03 305.159 560.728C309.763 563.225 313.113 567.208 322.633 567.882C332.154 568.556 341.197 569.522 346.067 571.595C347.847 572.352 349.926 573.813 351.846 575.362Z" fill="black" fill-opacity="0.15"/>
<path fill-rule="evenodd" clip-rule="evenodd" d="M367.233 547.53C366.247 546.955 365.163 546.329 363.977 545.653C356.038 541.13 355.632 540.788 350.83 535.07C346.028 529.352 341.123 525.074 331.925 519.025C328.316 516.652 325.223 515.356 322.288 514.691C336.295 515.491 351.37 531.433 354.021 535.852C356.721 540.352 367.521 546.16 367.521 546.16L367.233 547.53Z" fill="black" fill-opacity="0.15"/>
<path d="M477.55 1689.31C477.625 1690.82 476.417 1692.07 474.904 1692.07H420.68C419.389 1692.07 418.284 1691.15 418.061 1689.88C413.668 1664.49 372.483 1426.53 366.317 1381.68C360.392 1338.56 332.394 1192.98 327.398 1167.06C327.203 1166.03 325.745 1166 325.475 1167.01C320.043 1187.66 307.905 1259.57 288.125 1379.91C268.057 1502.01 235.396 1670.8 231.617 1690.23C231.412 1691.3 230.475 1692.07 229.379 1692.07H176.037C174.719 1692.07 173.67 1690.97 173.753 1689.64C178.062 1624.18 190.459 1379.83 195.725 1280.98C200.145 1197.96 203.851 1145.13 204.983 1129.52C205.225 1126.3 205.345 1124.66 205.345 1124.66C205.345 1124.66 449.162 961.534 454.575 1079.58C455.04 1089.8 455.486 1099.7 455.912 1109.34C455.987 1111.02 456.061 1112.7 456.136 1114.36C460.472 1213.49 462.645 1285.62 465.831 1394.71C469.127 1507.21 476.482 1666.46 477.55 1689.31Z" fill="#6B7277"/>
<g opacity="0.15">
<path d="M327.397 1167.06C327.202 1166.03 325.744 1165.99 325.475 1167.01C324.686 1152.57 323.794 1141.35 322.838 1139.72C314.127 1124.9 318.278 1102.22 319.002 1117.31C319.727 1132.39 325.178 1136.2 325.652 1140.93C326.125 1145.65 327.397 1167.06 327.397 1167.06Z" fill="black"/>
</g>
<path d="M274.598 637.739C274.598 637.739 279.51 619.831 282.135 618.383C284.761 616.935 347.054 619.068 353.393 632.429C359.731 645.789 350.481 661.549 350.481 661.549L274.598 637.739Z" fill="#F05F23"/>
<path d="M458.356 1108.13C457.724 1108.74 456.907 1109.17 455.987 1109.33C429.66 1113.81 281.068 1137.95 205.346 1124.66C204.334 1124.48 203.442 1123.97 202.793 1123.26C202.022 1122.41 201.576 1121.27 201.622 1120.03C202.551 1095.89 207.333 978.546 204.334 940.073C201.241 900.559 187.832 724.496 185.956 699.868C185.816 698.067 186.569 696.303 187.98 695.169C194.983 689.505 217.01 672.307 234.143 665.434C252.27 658.163 268.726 640.779 272.45 636.405C272.97 635.81 274.698 634.613 275.486 634.65C281.356 634.966 305.473 636.377 325.55 639.767C348.432 643.639 347.971 638.213 361.477 644.839C386.656 657.191 436.653 659.441 442.291 654.95C448.554 649.958 443.888 706.129 441.687 739.058C440.847 751.626 441.687 763.154 441.687 763.154L459.73 1104.55C459.833 1105.94 459.294 1107.23 458.356 1108.13Z" fill="#434D56"/>
<g opacity="0.2">
<path d="M441.4 745.038C441.124 754.143 441.583 761.665 441.671 762.958C418.841 760.851 392.346 756.327 379.389 746.801L422.261 736.493C427.642 739.117 435.276 741.95 441.4 745.038Z" fill="black"/>
</g>
<path d="M373.906 747.396C414.243 758.583 460.229 744.601 460.229 744.601L443.31 654.276C443.31 654.276 403.24 650.764 378.217 650.237C313.809 648.868 301.187 727.218 373.906 747.396Z" fill="#434D56"/>
<path fill-rule="evenodd" clip-rule="evenodd" d="M460.229 744.596C460.229 744.596 532.527 722.254 542.788 691.727C553.05 661.199 534.323 640.42 507.643 623.488C480.963 606.557 400.486 555.507 366.33 544.219C366.33 544.219 347.325 569.429 344.759 577.125C344.759 577.125 416.06 625.284 452.232 652.733C452.232 652.733 449.702 654.545 443.288 654.288C443.288 654.288 436.184 704.852 460.229 744.596Z" fill="#434D56"/>
<path d="M204.841 969.32C204.841 969.32 159.97 937.93 159.97 902.686C159.97 867.44 173.309 708.529 185.951 699.871C198.594 691.214 235.712 949.048 204.841 969.32Z" fill="#434D56"/>
<g opacity="0.15">
<path d="M204.841 969.319C204.841 969.319 205.353 851.991 192.801 742.393L204.841 969.319Z" fill="black"/>
</g>
<g opacity="0.15">
<path d="M456.136 1114.36C455.727 1114.58 455.273 1114.74 454.789 1114.83C439.392 1117.44 381.807 1126.85 321.761 1131.41C320.981 1131.47 320.192 1131.53 319.402 1131.59C278.44 1134.62 236.586 1135.31 206.405 1130.02C205.894 1129.93 205.42 1129.76 204.983 1129.52C205.225 1126.29 205.345 1124.66 205.345 1124.66C235.508 1129.95 277.223 1129.31 318.167 1126.33C318.836 1126.28 319.504 1126.24 320.164 1126.18C381.231 1121.63 440.135 1112.03 455.913 1109.34C455.987 1111.02 456.061 1112.7 456.136 1114.36Z" fill="black"/>
</g>
<path d="M1511.19 1326.01C1511.19 1326.01 1505.31 1318.52 1504.97 1300.2C1504.62 1281.88 1523.29 1289.48 1529.17 1309.19C1529.17 1309.19 1526.4 1273.58 1536.08 1251.8C1545.76 1230.02 1564.43 1222.53 1567.19 1292.59C1567.19 1292.59 1569.96 1275.65 1581.02 1272.54C1592.08 1269.43 1601.07 1271.81 1581.02 1326.62L1511.19 1326.01Z" fill="#E19A06"/>
<g opacity="0.1">
<path d="M1518.63 1322.25C1518.63 1322.25 1512.06 1300.85 1519.5 1313.87C1526.94 1326.89 1537.83 1330.22 1539.98 1306.4C1542.14 1282.57 1545.16 1232.22 1551.09 1273.51C1557.02 1314.81 1561.65 1324.62 1561.65 1324.62C1561.65 1324.62 1583.97 1273.84 1577.72 1296.16C1571.47 1318.48 1565.64 1326.62 1565.64 1326.62C1565.64 1326.62 1524.24 1334 1518.63 1322.25Z" fill="white"/>
</g>
<path d="M1501.02 1342.11L1511.21 1406.12H1584.5L1595.46 1337.26L1595.91 1334.45H1499.8L1501.02 1342.11Z" fill="#434D56"/>
<path d="M1595.59 1317.57H1500.12C1495.77 1317.57 1492.24 1321.1 1492.24 1325.45V1326.57C1492.24 1330.92 1495.77 1334.45 1500.12 1334.45H1595.59C1599.94 1334.45 1603.47 1330.92 1603.47 1326.57V1325.45C1603.47 1321.1 1599.94 1317.57 1595.59 1317.57Z" fill="#434D56"/>
<g opacity="0.15">
<path d="M1595.91 1334.45L1595.46 1337.26L1501.02 1342.11L1499.8 1334.45L1595.91 1334.45Z" fill="black"/>
</g>
<path d="M1346.27 1342.7C1348.97 1356.15 1357.2 1369.58 1369.79 1373.02L1366.14 1332.7C1366.04 1332.49 1365.96 1332.27 1365.91 1332.05C1365.9 1331.99 1364.63 1326.59 1360.31 1323.92C1357.62 1322.27 1354.2 1321.94 1350.11 1322.95C1345.93 1323.99 1344.25 1332.65 1346.27 1342.7ZM1348.55 1316.65C1354.43 1315.19 1359.56 1315.8 1363.79 1318.44C1364.18 1318.69 1364.55 1318.95 1364.9 1319.21L1364.61 1315.95C1364.34 1312.95 1365.98 1310.26 1368.47 1309.02C1369.42 1308.54 1370.49 1308.27 1371.62 1308.27H1425.9C1428.22 1308.27 1430.25 1309.38 1431.52 1311.08C1432.55 1312.42 1433.08 1314.13 1432.91 1315.95L1425.02 1402.91C1424.76 1405.72 1422.37 1407.84 1419.54 1407.77H1377.98C1375.16 1407.84 1372.77 1405.72 1372.51 1402.91L1370.42 1379.87C1353.87 1376.82 1343.21 1360.43 1339.91 1343.98C1337.02 1329.62 1340.49 1318.64 1348.55 1316.65Z" fill="#434D56"/>
<g opacity="0.05">
<path d="M1346.27 1342.7C1348.97 1356.15 1357.2 1369.58 1369.79 1373.02L1366.14 1332.7C1366.04 1332.49 1365.96 1332.27 1365.91 1332.05C1365.9 1331.99 1364.63 1326.59 1360.31 1323.92C1357.62 1322.27 1354.2 1321.94 1350.11 1322.95C1345.93 1323.99 1344.25 1332.65 1346.27 1342.7ZM1348.55 1316.65C1354.43 1315.19 1359.56 1315.8 1363.79 1318.44C1364.18 1318.69 1364.55 1318.95 1364.9 1319.21L1364.61 1315.95C1364.34 1312.95 1365.98 1310.26 1368.47 1309.02C1367.07 1404.44 1425.02 1402.91 1425.02 1402.91C1424.76 1405.72 1422.37 1407.84 1419.54 1407.77H1377.98C1375.16 1407.84 1372.77 1405.72 1372.51 1402.91L1370.42 1379.87C1353.87 1376.82 1343.21 1360.43 1339.91 1343.98C1337.02 1329.62 1340.49 1318.64 1348.55 1316.65Z" fill="#020202"/>
</g>
<g opacity="0.15">
<path d="M1412.5 1368.76C1424.95 1375.29 1430.12 1327.45 1431.52 1311.08C1430.25 1309.38 1428.22 1308.27 1425.9 1308.27L1423.63 1308.27C1424.37 1347.05 1402.81 1363.68 1412.5 1368.76Z" fill="white"/>
</g>
<path d="M1393.49 1439.94L1369.94 1594.86L1336.73 1757.62C1336.43 1759.59 1335.5 1760.95 1334.45 1760.95H1323.87C1322.48 1760.95 1321.39 1758.62 1321.5 1755.9L1328.18 1576.26L1333.31 1452.66L1393.49 1439.94Z" fill="#434D56"/>
<path d="M1393.49 1439.94L1369.94 1594.86C1356.53 1580.58 1341.51 1576.24 1328.18 1576.26L1333.31 1452.66L1393.49 1439.94Z" fill="#333333" fill-opacity="0.5"/>
<path d="M1568.27 1439.94L1591.82 1594.86L1623.44 1757.62C1623.74 1759.59 1624.66 1760.95 1625.71 1760.95H1636.3C1637.68 1760.95 1638.77 1758.62 1638.66 1755.9L1633.58 1576.26L1628.45 1452.66L1568.27 1439.94Z" fill="#434D56"/>
<path d="M1568.27 1439.94L1591.82 1594.86C1605.23 1580.58 1620.25 1576.24 1633.58 1576.26L1628.45 1452.66L1568.27 1439.94Z" fill="#333333" fill-opacity="0.5"/>
<path d="M1699.2 1428.67V1444.72L1686.37 1459.31C1682.51 1463.71 1678.63 1468.12 1673.68 1473.76H1288.08L1279.61 1464.11C1274.21 1457.97 1269.52 1452.65 1262.93 1445.15C1262.82 1445.01 1262.69 1444.86 1262.56 1444.72V1428.67H1699.2Z" fill="#F05F23"/>
<g opacity="0.15">
<path d="M1699.2 1428.67V1444.72L1686.37 1459.31L1279.61 1464.11C1274.21 1457.97 1269.52 1452.65 1262.93 1445.15C1262.82 1445.01 1262.69 1444.86 1262.56 1444.72V1428.67H1699.2Z" fill="black"/>
</g>
<path d="M1704.31 1451.21H1257.45C1254.21 1451.21 1251.58 1448.58 1251.58 1445.34V1411.99C1251.58 1408.75 1254.21 1406.12 1257.45 1406.12H1704.31C1707.55 1406.12 1710.18 1408.75 1710.18 1411.99V1445.34C1710.18 1448.58 1707.55 1451.21 1704.31 1451.21Z" fill="#F05F23"/>
<path fill-rule="evenodd" clip-rule="evenodd" d="M758.563 1594.85C758.563 1594.85 733.88 1569.83 758.128 1524.13C782.367 1478.43 824.143 1461.11 824.143 1461.11C824.143 1461.11 824.333 1509.51 801.198 1548.77C772.627 1597.25 758.563 1594.85 758.563 1594.85Z" fill="#F05F23"/>
<path fill-rule="evenodd" clip-rule="evenodd" d="M724.673 1520.69C724.673 1520.69 765.608 1481.28 708.818 1409.31C663.415 1351.78 626.288 1351.46 626.288 1351.46C626.288 1351.46 638.254 1410.03 659.553 1456.14C693.85 1530.39 724.673 1520.69 724.673 1520.69Z" fill="#F05F23"/>
<path fill-rule="evenodd" clip-rule="evenodd" d="M703.002 1608.29C703.002 1608.29 681.07 1618.6 662.04 1575C643.02 1531.39 647.244 1516.06 631.389 1482.77C631.389 1482.77 682.037 1489.43 699.828 1526.37C731.275 1591.65 703.002 1608.29 703.002 1608.29Z" fill="#E19A06"/>
<path fill-rule="evenodd" clip-rule="evenodd" d="M798.258 1493.22C798.9 1493.59 799.642 1493.15 799.271 1493.8C752.864 1575.45 761.276 1609.39 753.778 1638.44C753.742 1638.62 751.128 1648.4 746.741 1661.41C741.224 1677.76 736.575 1688.4 736.566 1688.4C735.951 1689.03 735.472 1689.9 734.649 1690.2C734.631 1690.21 732.008 1690.14 731.999 1690.13C731.393 1689.49 730.507 1689.03 730.199 1688.2C729.53 1686.45 729.901 1686.39 730.688 1684.68C737.417 1670.02 743.169 1653.31 744.128 1650.54C748.27 1638.52 749.21 1634.56 749.545 1633.14C753.633 1615.86 753.38 1594.13 765.445 1560.15C775.041 1533.1 788.698 1509 798.258 1493.22Z" fill="#364049"/>
<path fill-rule="evenodd" clip-rule="evenodd" d="M664.51 1523.55C664.908 1523.81 665.396 1523.89 665.794 1524.14C665.939 1524.22 668.263 1527.59 668.48 1527.9C692.14 1562.17 705.11 1608.16 712.563 1631.99C712.725 1632.53 718.758 1649.55 717.682 1680.68C717.537 1684.72 717.32 1687.35 717.311 1687.35C716.895 1688.12 716.732 1689.12 716.045 1689.68C716.036 1689.69 713.494 1690.45 713.485 1690.45C712.716 1690.02 711.722 1689.87 711.161 1689.18C710.048 1687.81 710.284 1687.65 710.464 1685.9C711.785 1673.47 711.333 1661.86 711.251 1659.77C710.573 1642.49 707.706 1633.99 706.268 1628.75C699.566 1604.26 687.627 1558.73 664.926 1525.37C664.655 1524.97 664.645 1524.97 664.645 1524.95C664.483 1524.27 664.673 1524.24 664.51 1523.55Z" fill="#364049"/>
<path fill-rule="evenodd" clip-rule="evenodd" d="M660.033 1387.04C687.971 1419.86 715.828 1464.35 728.662 1532.04C729.702 1537.54 733.799 1558.62 736.277 1596.01C739.533 1645.08 730.353 1681.67 727.604 1691.1C727.368 1691.9 727.151 1692.59 727.151 1692.59C726.554 1693.31 726.147 1694.3 725.306 1694.73C725.288 1694.73 722.485 1694.95 722.475 1694.94C721.761 1694.34 720.766 1693.94 720.341 1693.11C719.437 1691.32 719.834 1691.22 720.431 1689.32C723.308 1680.24 732.994 1644.54 730.724 1596.33C727.812 1534.59 718.36 1460.21 659.798 1388.71C659.101 1387.87 659.074 1387.88 659.083 1387.85C659.183 1387.16 659.933 1387.72 660.033 1387.04Z" fill="#364049"/>
<path fill-rule="evenodd" clip-rule="evenodd" d="M727.639 1539.43C727.639 1539.43 750.711 1533.07 759.747 1483.57C768.773 1434.07 770.781 1398.95 769.108 1379.55C767.435 1360.15 769.108 1321.35 769.108 1321.35C769.108 1321.35 728.942 1346.24 714.588 1422.69C696.192 1520.69 727.639 1539.43 727.639 1539.43Z" fill="#E19A06"/>
<path fill-rule="evenodd" clip-rule="evenodd" d="M745.34 1387.33C746.244 1387.48 746.904 1386.66 746.76 1387.56C742.527 1414.56 728.391 1504.39 727.043 1588.36C726.265 1637.48 732.189 1686.31 733.636 1697.04C733.799 1698.26 733.139 1699.12 733.021 1699.27C733.012 1699.28 731.032 1700.43 731.022 1700.42C730.281 1700.23 729.404 1700.29 728.798 1699.83C727.568 1698.88 727.739 1698.7 727.559 1697.17C726.745 1690.3 720.947 1638.75 722.656 1586.94C725.325 1506.68 738.9 1424.7 745.34 1387.33Z" fill="#364049"/>
<path d="M677.955 1760.95H771.707L793.464 1656.44L661.818 1654.91L677.955 1760.95Z" fill="#434D56"/>
<path d="M651.059 1633.91V1653.75C651.059 1658.06 654.557 1661.56 658.87 1661.56H794.632C798.945 1661.56 802.444 1658.06 802.444 1653.75V1633.91H651.059Z" fill="#434D56"/>
<path fill-rule="evenodd" clip-rule="evenodd" d="M663.286 1661.56H791.735C791.735 1661.56 718.131 1666.58 663.286 1661.56Z" fill="#364049"/>
</svg>
