<svg width="63" height="31" viewBox="0 0 63 31" fill="none" xmlns="http://www.w3.org/2000/svg">
<path d="M22.3701 24.9221L25.5533 6.24828H30.6428L27.4588 24.9221H22.3701ZM45.8239 6.65794C44.3633 6.12885 42.8204 5.86336 41.2669 5.87383C36.2441 5.87383 32.7055 8.4034 32.6751 12.0296C32.6474 14.7096 35.2017 16.2045 37.1301 17.0962C39.1089 18.0109 39.774 18.5939 39.7644 19.4104C39.7521 20.6604 38.1838 21.2311 36.7233 21.2311C34.6882 21.2311 33.6078 20.9453 31.9376 20.2527L31.2831 19.9564L30.5695 24.1313C31.7566 24.6515 33.9527 25.1031 36.2317 25.126C41.5756 25.126 45.0445 22.6259 45.0846 18.754C45.1036 16.6322 43.7507 15.0173 40.8163 13.6863C39.0394 12.8289 37.9514 12.2477 37.9628 11.374C37.9628 10.5994 38.8841 9.7706 40.8744 9.7706C42.1784 9.74141 43.4742 9.98479 44.6787 10.4852L45.1341 10.7005L45.8239 6.65794ZM58.8994 6.24828H54.9836C53.7707 6.24828 52.8628 6.57985 52.3302 7.78984L44.8035 24.8268H50.1608C50.1608 24.8268 51.0183 22.5612 51.2155 22.0638L57.6341 22.0715C57.7837 22.7155 58.2439 24.8268 58.2439 24.8268H63L58.8994 6.24828ZM52.6732 18.2529C53.0933 17.1782 54.6987 13.0394 54.6987 13.0394C54.6682 13.089 55.116 11.959 55.3723 11.2588L55.7162 12.867C55.7162 12.867 56.6899 17.3192 56.8929 18.2529H52.6732ZM18.0513 6.24828L13.0857 18.9379L12.5569 16.3588C11.6327 13.3863 8.75257 10.166 5.53229 8.55394L10.0731 24.8268L15.4389 24.8211L23.4239 6.24828H18.0266" fill="#2F2F2F"/>
<path d="M8.22789 6.24796H0.0657338L0 6.63571C6.37768 8.18011 10.5973 11.9111 12.3494 16.3928L10.5669 7.81808C10.2591 6.63763 9.36739 6.28511 8.26316 6.24414" fill="#2F2F2F"/>
</svg>
