<?xml version="1.0" encoding="UTF-8"?>
<svg id="Layer_1" data-name="Layer 1" xmlns="http://www.w3.org/2000/svg" xmlns:xlink="http://www.w3.org/1999/xlink" viewBox="0 0 384.15 163.9">
  <defs>
    <style>
      .cls-1 {
        fill: url(#linear-gradient);
      }

      .cls-1, .cls-2, .cls-3, .cls-4, .cls-5, .cls-6, .cls-7, .cls-8 {
        stroke-width: 0px;
      }

      .cls-2 {
        fill: #231f20;
      }

      .cls-3 {
        fill: url(#linear-gradient-6);
      }

      .cls-4 {
        fill: url(#linear-gradient-5);
      }

      .cls-5 {
        fill: url(#linear-gradient-2);
      }

      .cls-6 {
        fill: url(#linear-gradient-3);
      }

      .cls-7 {
        fill: #fff;
      }

      .cls-8 {
        fill: url(#linear-gradient-4);
      }
    </style>
    <linearGradient id="linear-gradient" x1="41.28" y1="43.38" x2="41.28" y2="150.88" gradientUnits="userSpaceOnUse">
      <stop offset="0" stop-color="#faaf43"/>
      <stop offset=".22" stop-color="#ffd67a"/>
      <stop offset=".44" stop-color="#fbbb54"/>
      <stop offset=".58" stop-color="#faaf43"/>
      <stop offset=".71" stop-color="#fbb84f"/>
      <stop offset=".94" stop-color="#fecf71"/>
      <stop offset="1" stop-color="#ffd67a"/>
    </linearGradient>
    <linearGradient id="linear-gradient-2" x1="96.08" y1="0" x2="96.08" y2="123.85" xlink:href="#linear-gradient"/>
    <linearGradient id="linear-gradient-3" x1="149.02" x2="149.02" y2="163.9" xlink:href="#linear-gradient"/>
    <linearGradient id="linear-gradient-4" x1="238.58" y1="14.73" x2="238.58" y2="123.85" xlink:href="#linear-gradient"/>
    <linearGradient id="linear-gradient-5" x1="319.53" x2="319.53" y2="125.62" xlink:href="#linear-gradient"/>
    <linearGradient id="linear-gradient-6" x1="378.84" y1="14.73" x2="378.84" y2="123.85" xlink:href="#linear-gradient"/>
  </defs>
  <path class="cls-1" d="M72.26,115c-7.3,8.15-17.6,12.23-30.9,12.23s-23.34-4.24-30.74-12.71v36.37H0V45.15h10.62v10.94c7.4-8.47,17.59-12.71,30.58-12.71s23.5,3.97,30.9,11.91c6.97,7.51,10.46,17.44,10.46,29.77s-3.44,22.43-10.3,29.93ZM42.17,53.2c-9.66,0-17.33,2.92-23.01,8.77-5.69,5.85-8.53,13.44-8.53,22.77,0,21.78,10.46,32.67,31.38,32.67,9.66,0,17.17-3.11,22.53-9.33,5.04-5.79,7.56-13.41,7.56-22.85s-2.66-17.41-7.97-23.26c-5.31-5.85-12.63-8.77-21.97-8.77Z"/>
  <path class="cls-5" d="M95.76,32.92c-2.25,0-3.92-1.34-4.99-4.02V4.02c1.29-2.68,2.95-4.02,4.99-4.02,1.72,0,3.59,1.18,5.63,3.54v25.84c-1.93,2.36-3.81,3.54-5.63,3.54ZM90.77,123.85V43.38h10.62v80.47h-10.62Z"/>
  <path class="cls-6" d="M174.77,163.9v-91.07c0-6.44-2.09-11.35-6.28-14.73-4.19-3.38-9.98-5.07-17.38-5.07-8.69,0-15.51,2.47-20.44,7.4-4.94,4.94-7.4,11.43-7.4,19.47v43.93h-10.62V45.15h10.62v8.37c6.54-6.76,15.77-10.14,27.68-10.14,9.76,0,17.76,2.25,23.98,6.76,6.97,5.04,10.46,12.13,10.46,21.24v92.52h-10.62Z"/>
  <path class="cls-8" d="M265.54,123.85l-41.2-42.49-16.58,11.59v30.9h-10.62V14.73h10.62v65.98l53.59-37.5,18.67.48-47.15,31.7,47.15,48.44h-14.48Z"/>
  <path class="cls-4" d="M350.35,124.01v-11.43c-7.51,8.69-18.02,13.04-31.54,13.04-12.77,0-22.91-3.97-30.42-11.91-6.87-7.51-10.3-17.16-10.3-28.97s3.48-21.78,10.46-29.29c7.51-8.05,17.81-12.07,30.9-12.07s23.5,4.18,30.9,12.55v-12.23h10.62v80.31h-10.62ZM342.23,61.57c-5.42-5.69-13.28-8.53-23.58-8.53-9.55,0-17.06,3.11-22.53,9.33-5.04,5.79-7.56,13.25-7.56,22.37s2.52,16.63,7.56,22.21c5.36,6.01,12.87,9.01,22.53,9.01s17.22-2.98,23.01-8.93c5.79-5.95,8.69-13.38,8.69-22.29,0-9.76-2.71-17.49-8.13-23.17Z"/>
  <path class="cls-3" d="M373.53,123.85V14.73h10.62v109.11h-10.62Z"/>
  <path class="cls-7" d="M79.95,16.47c0-2.25,1.34-3.92,4.02-4.99h24.87c2.68,1.29,4.02,2.95,4.02,4.99,0,1.72-1.18,3.59-3.54,5.63h-25.84c-2.36-1.93-3.54-3.81-3.54-5.63Z"/>
  <path class="cls-7" d="M96.73.33c2.25,0,3.92,1.34,4.99,4.02v24.87c-1.29,2.68-2.95,4.02-4.99,4.02-1.72,0-3.59-1.18-5.63-3.54V3.87c1.93-2.36,3.81-3.54,5.63-3.54Z"/>
  <g>
    <path class="cls-2" d="M59.18,162.33c0,.29-.12.55-.36.78-.24.23-.51.34-.8.34h-.76c-.75,0-1.12-.37-1.12-1.12v-19.27l-9.65,19.79c-.19.4-.52.6-1,.6h-.84c-.45,0-.77-.2-.96-.6l-9.65-19.79v19.27c0,.29-.12.55-.36.78-.24.23-.51.34-.8.34h-.76c-.75,0-1.12-.37-1.12-1.12v-24.91c0-.75.37-1.12,1.12-1.12h1.24c.45,0,.77.2.96.6l10.77,22.11,10.73-22.11c.24-.4.57-.6,1-.6h1.2c.29,0,.56.11.8.34.24.23.36.49.36.78v24.91Z"/>
    <path class="cls-2" d="M82.09,153.72c0,.75-.37,1.12-1.12,1.12l-15.02.04c.32,4.06,2.5,6.09,6.53,6.09,1.33,0,2.55-.32,3.65-.96,1.2-.67,2.02-1.6,2.44-2.8l-.04.08c.13-.56.48-.84,1.04-.84h.76c.75,0,1.12.38,1.12,1.12v.16c-1.26,4.06-4.27,6.09-9.05,6.09-3.12,0-5.47-.92-7.05-2.76-1.58-1.84-2.36-4.31-2.36-7.41s.85-5.39,2.56-7.29c1.82-2,4.15-3,7.01-3s5.19.87,6.93,2.6c1.74,1.74,2.6,4.06,2.6,6.97v.8ZM78.92,151.99c-.21-1.58-.77-2.87-1.68-3.89-1.1-1.23-2.66-1.84-4.69-1.84-1.79,0-3.26.51-4.43,1.54-1.16,1.03-1.88,2.42-2.14,4.19h12.94Z"/>
    <path class="cls-2" d="M103.52,162.33c0,.75-.36,1.12-1.08,1.12h-.76c-.72,0-1.08-.37-1.08-1.12v-1.16c-1.66,1.82-3.86,2.72-6.61,2.72-2.94,0-5.3-1.11-7.09-3.32-1.47-1.9-2.2-4.29-2.2-7.17s.8-5.5,2.4-7.45c1.71-2.11,4.05-3.16,7.01-3.16,2.64,0,4.81.89,6.49,2.68v-8.09c0-.72.36-1.08,1.08-1.08h.76c.72,0,1.08.36,1.08,1.08v24.95ZM100.59,153.4c0-2.27-.52-4.08-1.56-5.45-1.15-1.47-2.83-2.2-5.05-2.2-2.08,0-3.7.78-4.85,2.32-1.02,1.39-1.52,3.16-1.52,5.33s.49,3.89,1.48,5.25c.05.03.11.07.16.12,1.12,1.44,2.7,2.16,4.73,2.16s3.7-.76,4.93-2.28c1.12-1.39,1.68-3.14,1.68-5.25Z"/>
    <path class="cls-2" d="M110.81,139.94l-.16.32c-.24.67-.64,1-1.2,1-.8,0-1.2-.4-1.2-1.2v-2.88c.24-.83.64-1.24,1.2-1.24.48,0,.93.39,1.36,1.16v2.84ZM110.81,162.33c0,.27-.12.52-.36.76s-.49.36-.76.36h-.36c-.72,0-1.08-.37-1.08-1.12v-17.94c0-.75.36-1.12,1.08-1.12h.36c.29,0,.55.11.78.34.23.23.34.49.34.78v17.94Z"/>
    <path class="cls-2" d="M133.92,157.36c-.4,2.08-1.51,3.75-3.32,5.01l-.24.08c-1.47.91-3.19,1.36-5.17,1.36-2.94,0-5.27-.93-6.99-2.78-1.72-1.86-2.58-4.21-2.58-7.07,0-3.12.89-5.67,2.66-7.65,1.78-1.98,4.21-2.96,7.31-2.96,1.92,0,3.58.47,4.97,1.4,1.66,1.09,2.68,2.55,3.08,4.37v.24c0,.48-.15.8-.44.96l-.8.44c-.13.08-.31.12-.52.12-.59,0-.95-.28-1.08-.84-.56-2.51-2.31-3.77-5.25-3.77-2.3,0-4.04.7-5.23,2.1-1.19,1.4-1.78,3.26-1.78,5.59,0,2.14.56,3.82,1.68,5.05,1.17,1.31,2.82,1.96,4.93,1.96,1.39,0,2.6-.32,3.65-.96,1.15-.69,1.86-1.68,2.12-2.96.24-.77.63-1.16,1.16-1.16.16,0,.32.04.48.12l-.04-.04.88.36.52,1.04Z"/>
    <path class="cls-2" d="M155.83,162.37c0,.72-.36,1.08-1.08,1.08h-.76c-.72,0-1.08-.36-1.08-1.08v-1.16c-1.63,1.74-3.83,2.6-6.61,2.6-2.94,0-5.25-.99-6.93-2.96-1.58-1.84-2.36-4.25-2.36-7.21s.81-5.38,2.44-7.25c1.79-2.03,4.11-3.04,6.97-3.04,2.7,0,4.86.87,6.49,2.6v-1.4c0-.29.11-.55.32-.78.21-.23.47-.34.76-.34h.76c.72,0,1.08.38,1.08,1.12v17.82ZM152.9,153.64c0-2.27-.53-4.03-1.6-5.29-1.12-1.39-2.79-2.08-5.01-2.08-2.03,0-3.62.74-4.77,2.2-1.07,1.36-1.6,3.08-1.6,5.17s.48,3.81,1.44,5.09c.05.03.12.08.2.16,1.12,1.39,2.7,2.08,4.73,2.08s3.64-.69,4.83-2.06c1.19-1.38,1.78-3.13,1.78-5.27Z"/>
    <path class="cls-2" d="M162.92,162.17c0,.27-.12.51-.36.74-.24.23-.49.34-.76.34h-.36c-.75,0-1.12-.36-1.12-1.08v-24.19c0-.75.37-1.12,1.12-1.12h.36c.27,0,.52.12.76.36s.36.49.36.76v24.19Z"/>
  </g>
  <g>
    <path class="cls-2" d="M222.97,159.69c0,.72-.4,1.08-1.2,1.08h-.8c-.53,0-.89-.23-1.08-.68l-3.25-7.53h-12.42l-3.37,7.57c-.27.43-.6.64-1,.64h-.92c-.75,0-1.12-.36-1.12-1.08,0-.13.05-.31.16-.52l-.04.04,11.09-24.91c.27-.45.61-.68,1.04-.68h1c.51,0,.85.23,1.04.68l10.69,24.87c.11.21.16.39.16.52ZM215.4,149.64l-4.85-11.1-5.01,11.1h9.85Z"/>
    <path class="cls-2" d="M243.88,151.04c0,.75-.38,1.12-1.12,1.12l-15.02.04c.32,4.06,2.5,6.09,6.53,6.09,1.33,0,2.55-.32,3.64-.96,1.2-.67,2.02-1.6,2.44-2.8l-.04.08c.13-.56.48-.84,1.04-.84h.76c.75,0,1.12.38,1.12,1.12v.16c-1.25,4.06-4.27,6.09-9.05,6.09-3.12,0-5.47-.92-7.05-2.76s-2.36-4.31-2.36-7.41.85-5.39,2.56-7.29c1.82-2,4.15-3,7.01-3s5.19.87,6.93,2.6c1.74,1.74,2.6,4.06,2.6,6.97v.8ZM240.71,149.32c-.21-1.58-.78-2.87-1.68-3.89-1.1-1.23-2.66-1.84-4.69-1.84-1.79,0-3.26.51-4.43,1.54-1.16,1.03-1.88,2.42-2.14,4.19h12.94Z"/>
    <path class="cls-2" d="M262.66,155.32c0,2.06-.78,3.59-2.32,4.61-1.31.85-3.03,1.28-5.17,1.28-5.53,0-8.29-2.52-8.29-7.57,0-.29.11-.55.32-.76.21-.21.47-.32.76-.32h.8c.72,0,1.08.36,1.08,1.08,0,3.1,1.79,4.65,5.37,4.65,1.17,0,2.16-.2,2.96-.6,1.04-.53,1.56-1.32,1.56-2.36,0-1.23-1.02-2.1-3.04-2.6-.08,0-.73-.12-1.96-.36-.32-.05-.82-.13-1.48-.24-3.74-.64-5.61-2.47-5.61-5.49,0-1.95.76-3.49,2.28-4.61,1.28-.93,2.84-1.4,4.69-1.4,5.31,0,7.97,2.26,7.97,6.77,0,.75-.36,1.12-1.08,1.12h-.84c-.72,0-1.08-.37-1.08-1.12,0-2.54-1.62-3.81-4.85-3.81-1.04,0-1.96.24-2.76.72-.94.56-1.4,1.33-1.4,2.32,0,1.15.99,1.92,2.96,2.32h-.12c.16,0,.31.03.44.08l-.08-.04c.75.16,1.87.39,3.36.68,3.69.64,5.53,2.52,5.53,5.65Z"/>
    <path class="cls-2" d="M274.8,143.59c0,.29-.1.56-.3.8s-.43.36-.7.36h-2.12v14.9c0,.27-.1.52-.3.76s-.43.36-.7.36h-.56c-.29,0-.54-.11-.74-.34-.2-.23-.3-.49-.3-.78l-.04-14.9h-2.08c-.27,0-.5-.12-.7-.36s-.3-.51-.3-.8v-.68c0-.75.33-1.12,1-1.12h2.08v-4.49c0-.75.33-1.12,1-1.12h.64c.27,0,.5.12.7.36s.3.49.3.76v4.49h2.12c.67,0,1,.37,1,1.12v.68Z"/>
    <path class="cls-2" d="M294.79,159.65c0,.29-.11.55-.32.78-.21.23-.47.34-.76.34h-.72c-.69,0-1.04-.37-1.04-1.12v-11.9c0-1.47-.43-2.61-1.3-3.42-.87-.81-2.05-1.22-3.54-1.22-1.79,0-3.18.59-4.19,1.78-1,1.19-1.5,2.73-1.5,4.63v10.13c0,.29-.11.55-.32.78-.21.23-.47.34-.76.34h-.76c-.72,0-1.08-.37-1.08-1.12v-24.91c0-.75.36-1.12,1.08-1.12h.76c.29,0,.55.11.76.34.21.23.32.49.32.78v7.49c.21-.21.47-.43.76-.64.05-.05.12-.08.2-.08,1.39-.91,2.96-1.36,4.73-1.36,2.16,0,3.95.6,5.37,1.8l-.04-.04c1.58,1.25,2.36,3.1,2.36,5.53v12.22Z"/>
    <path class="cls-2" d="M317.74,151.04c0,.75-.38,1.12-1.12,1.12l-15.02.04c.32,4.06,2.5,6.09,6.53,6.09,1.33,0,2.55-.32,3.64-.96,1.2-.67,2.02-1.6,2.44-2.8l-.04.08c.13-.56.48-.84,1.04-.84h.76c.75,0,1.12.38,1.12,1.12v.16c-1.25,4.06-4.27,6.09-9.05,6.09-3.12,0-5.47-.92-7.05-2.76s-2.36-4.31-2.36-7.41.85-5.39,2.56-7.29c1.82-2,4.15-3,7.01-3s5.19.87,6.93,2.6c1.74,1.74,2.6,4.06,2.6,6.97v.8ZM314.57,149.32c-.21-1.58-.78-2.87-1.68-3.89-1.1-1.23-2.66-1.84-4.69-1.84-1.79,0-3.26.51-4.43,1.54-1.16,1.03-1.88,2.42-2.14,4.19h12.94Z"/>
    <path class="cls-2" d="M328.83,143.59c0,.29-.1.56-.3.8s-.43.36-.7.36h-2.12v14.9c0,.27-.1.52-.3.76s-.43.36-.7.36h-.56c-.29,0-.54-.11-.74-.34-.2-.23-.3-.49-.3-.78l-.04-14.9h-2.08c-.27,0-.5-.12-.7-.36s-.3-.51-.3-.8v-.68c0-.75.33-1.12,1-1.12h2.08v-4.49c0-.75.33-1.12,1-1.12h.64c.27,0,.5.12.7.36s.3.49.3.76v4.49h2.12c.67,0,1,.37,1,1.12v.68Z"/>
    <path class="cls-2" d="M334.68,137.26l-.16.32c-.24.67-.64,1-1.2,1-.8,0-1.2-.4-1.2-1.2v-2.88c.24-.83.64-1.24,1.2-1.24.48,0,.93.39,1.36,1.16v2.84ZM334.68,159.65c0,.27-.12.52-.36.76-.24.24-.49.36-.76.36h-.36c-.72,0-1.08-.37-1.08-1.12v-17.94c0-.75.36-1.12,1.08-1.12h.36c.29,0,.55.11.78.34.23.23.34.49.34.78v17.94Z"/>
    <path class="cls-2" d="M357.79,154.68c-.4,2.08-1.51,3.75-3.33,5.01l-.24.08c-1.47.91-3.19,1.36-5.17,1.36-2.94,0-5.27-.93-6.99-2.78-1.72-1.86-2.58-4.21-2.58-7.07,0-3.12.89-5.67,2.66-7.65,1.78-1.98,4.21-2.96,7.31-2.96,1.92,0,3.58.47,4.97,1.4,1.66,1.09,2.68,2.55,3.08,4.37v.24c0,.48-.15.8-.44.96l-.8.44c-.13.08-.31.12-.52.12-.59,0-.95-.28-1.08-.84-.56-2.51-2.31-3.77-5.25-3.77-2.3,0-4.04.7-5.23,2.1-1.19,1.4-1.78,3.26-1.78,5.59,0,2.14.56,3.82,1.68,5.05,1.17,1.31,2.82,1.96,4.93,1.96,1.39,0,2.6-.32,3.65-.96,1.15-.69,1.86-1.68,2.12-2.96.24-.77.63-1.16,1.16-1.16.16,0,.32.04.48.12l-.04-.04.88.36.52,1.04Z"/>
    <path class="cls-2" d="M377.06,155.32c0,2.06-.78,3.59-2.32,4.61-1.31.85-3.03,1.28-5.17,1.28-5.53,0-8.29-2.52-8.29-7.57,0-.29.11-.55.32-.76.21-.21.47-.32.76-.32h.8c.72,0,1.08.36,1.08,1.08,0,3.1,1.79,4.65,5.37,4.65,1.17,0,2.16-.2,2.96-.6,1.04-.53,1.56-1.32,1.56-2.36,0-1.23-1.02-2.1-3.04-2.6-.08,0-.73-.12-1.96-.36-.32-.05-.82-.13-1.48-.24-3.74-.64-5.61-2.47-5.61-5.49,0-1.95.76-3.49,2.28-4.61,1.28-.93,2.84-1.4,4.69-1.4,5.31,0,7.97,2.26,7.97,6.77,0,.75-.36,1.12-1.08,1.12h-.84c-.72,0-1.08-.37-1.08-1.12,0-2.54-1.62-3.81-4.85-3.81-1.04,0-1.96.24-2.76.72-.94.56-1.4,1.33-1.4,2.32,0,1.15.99,1.92,2.96,2.32h-.12c.16,0,.31.03.44.08l-.08-.04c.75.16,1.87.39,3.36.68,3.69.64,5.53,2.52,5.53,5.65Z"/>
  </g>
</svg>